M48
METRIC,LZ,000.000
;FILE_FORMAT=3:3
;TYPE=PLATED
;Layer: PTH_Through
;EasyEDA v6.5.39, 2023-12-12 15:22:05
;97430d4051d74cbab9520267499de571,defc1f93b7bc4f92b0c06f3051cee8fa,10
;Gerber Generator version 0.2
;Holesize 1 = 1.000 mm
T01C1.000
;Holesize 2 = 1.200 mm
T02C1.200
;Holesize 3 = 1.301 mm
T03C1.301
%
G05
G90
T01
X026035Y010160G85X026035Y010160
X028575Y010160G85X028575Y010160
X026035Y012700G85X026035Y012700
X028575Y012700G85X028575Y012700
X026035Y015240G85X026035Y015240
X028575Y015240G85X028575Y015240
X026035Y017780G85X026035Y017780
X028575Y017780G85X028575Y017780
X026035Y020320G85X026035Y020320
X028575Y020320G85X028575Y020320
X026035Y022860G85X026035Y022860
X028575Y022860G85X028575Y022860
X026035Y025400G85X026035Y025400
X028575Y025400G85X028575Y025400
X026035Y027940G85X026035Y027940
X028575Y027940G85X028575Y027940
X026035Y030480G85X026035Y030480
X028575Y030480G85X028575Y030480
X026035Y033020G85X026035Y033020
X028575Y033020G85X028575Y033020
X053975Y010160G85X053975Y010160
X051435Y010160G85X051435Y010160
X051435Y012700G85X051435Y012700
X051435Y015240G85X051435Y015240
X051435Y017780G85X051435Y017780
X051435Y020320G85X051435Y020320
X051435Y022860G85X051435Y022860
X051435Y025400G85X051435Y025400
X051435Y027940G85X051435Y027940
X051435Y030480G85X051435Y030480
X051435Y033020G85X051435Y033020
X053975Y033020G85X053975Y033020
X053975Y030480G85X053975Y030480
X053975Y027940G85X053975Y027940
X053975Y025400G85X053975Y025400
X053975Y022860G85X053975Y022860
X053975Y020320G85X053975Y020320
X053975Y017780G85X053975Y017780
X053975Y015240G85X053975Y015240
X053975Y012700G85X053975Y012700
X073025Y037945
X073025Y034445
X018415Y035560
X018415Y033020
X018415Y030480
X018415Y027940
X018415Y025400
X018415Y017780
X018415Y015240
X018415Y012700
X018415Y010160
X018415Y007620
X073152Y029210
X073152Y026670
X073152Y024130
X073152Y021590
X073152Y019050
X073152Y016510
X073152Y013970
X073152Y011430
X060833Y011430
X060833Y013970
X060833Y016510
X060833Y019050
X060833Y021590
X060833Y024130
X060833Y026670
X060833Y029210
X013970Y012700
X013970Y027305
X015875Y010160
X012065Y035560
X012065Y019685
X057150Y037465
X070485Y024130
X015875Y024765
T02
X060960Y007615
X058420Y007625
X063500Y007615
T03
X064770Y037465
X064770Y040005
X064770Y034925
X080010Y034254
X080010Y029245
X069250Y003810
X074259Y003810
X080010Y013934
X080010Y008926
X080010Y024094
X080010Y019086
M30
