G04 Layer: TopLayer*
G04 EasyEDA v6.5.39, 2023-12-12 15:22:05*
G04 97430d4051d74cbab9520267499de571,defc1f93b7bc4f92b0c06f3051cee8fa,10*
G04 Gerber Generator version 0.2*
G04 Scale: 100 percent, Rotated: No, Reflected: No *
G04 Dimensions in millimeters *
G04 leading zeros omitted , absolute positions ,4 integer and 5 decimal *
%FSLAX45Y45*%
%MOMM*%

%AMMACRO1*21,1,$1,$2,0,0,$3*%
%ADD10C,0.8000*%
%ADD11C,0.2540*%
%ADD12C,2.0000*%
%ADD13O,2.4999949999999997X1.9999959999999999*%
%ADD14MACRO1,2.0015X2.4994X90.0000*%
%ADD15C,2.3000*%
%ADD16C,2.6000*%
%ADD17R,2.0000X2.0000*%
%ADD18O,1.9999959999999999X2.5999948*%
%ADD19R,2.0000X2.6000*%

%LPD*%
D10*
X1397000Y1270000D02*
G01*
X1397000Y2730500D01*
X1587500Y2476500D02*
G01*
X1587500Y1016000D01*
X1206500Y3556000D02*
G01*
X1206500Y1968500D01*
X7048474Y2413000D02*
G01*
X5715000Y3746474D01*
X5715000Y3746500D01*
D11*
X1968103Y3822694D02*
G01*
X1841103Y3822694D01*
X1968103Y2044700D02*
G01*
X1841103Y2044700D01*
G75*
G01*
X1885800Y2539695D02*
G02*
X1821800Y2539695I-32000J0D01*
G75*
G01*
X1821800Y2539695D02*
G02*
X1885800Y2539695I32000J0D01*
G75*
G01*
X1885800Y2793695D02*
G02*
X1821800Y2793695I-32000J0D01*
G75*
G01*
X1821800Y2793695D02*
G02*
X1885800Y2793695I32000J0D01*
G75*
G01*
X1885800Y3047695D02*
G02*
X1821800Y3047695I-32000J0D01*
G75*
G01*
X1821800Y3047695D02*
G02*
X1885800Y3047695I32000J0D01*
G75*
G01*
X1885800Y3301695D02*
G02*
X1821800Y3301695I-32000J0D01*
G75*
G01*
X1821800Y3301695D02*
G02*
X1885800Y3301695I32000J0D01*
G75*
G01*
X1885800Y3555695D02*
G02*
X1821800Y3555695I-32000J0D01*
G75*
G01*
X1821800Y3555695D02*
G02*
X1885800Y3555695I32000J0D01*
G75*
G01*
X1885800Y761700D02*
G02*
X1821800Y761700I-32000J0D01*
G75*
G01*
X1821800Y761700D02*
G02*
X1885800Y761700I32000J0D01*
G75*
G01*
X1885800Y1015700D02*
G02*
X1821800Y1015700I-32000J0D01*
G75*
G01*
X1821800Y1015700D02*
G02*
X1885800Y1015700I32000J0D01*
G75*
G01*
X1885800Y1269700D02*
G02*
X1821800Y1269700I-32000J0D01*
G75*
G01*
X1821800Y1269700D02*
G02*
X1885800Y1269700I32000J0D01*
G75*
G01*
X1885800Y1523700D02*
G02*
X1821800Y1523700I-32000J0D01*
G75*
G01*
X1821800Y1523700D02*
G02*
X1885800Y1523700I32000J0D01*
G75*
G01*
X1885800Y1777700D02*
G02*
X1821800Y1777700I-32000J0D01*
G75*
G01*
X1821800Y1777700D02*
G02*
X1885800Y1777700I32000J0D01*
D12*
G01*
X2603474Y1016000D03*
G01*
X2857474Y1016000D03*
G01*
X2603474Y1270000D03*
G01*
X2857474Y1270000D03*
G01*
X2603474Y1524000D03*
G01*
X2857474Y1524000D03*
G01*
X2603474Y1778000D03*
G01*
X2857474Y1778000D03*
G01*
X2603474Y2032000D03*
G01*
X2857474Y2032000D03*
G01*
X2603474Y2286000D03*
G01*
X2857474Y2286000D03*
G01*
X2603474Y2540000D03*
G01*
X2857474Y2540000D03*
G01*
X2603474Y2794000D03*
G01*
X2857474Y2794000D03*
G01*
X2603474Y3048000D03*
G01*
X2857474Y3048000D03*
G01*
X2603474Y3302000D03*
G01*
X2857474Y3302000D03*
G01*
X5397474Y1016000D03*
G01*
X5143474Y1016000D03*
G01*
X5143474Y1270000D03*
G01*
X5143474Y1524000D03*
G01*
X5143474Y1778000D03*
G01*
X5143474Y2032000D03*
G01*
X5143474Y2286000D03*
G01*
X5143474Y2540000D03*
G01*
X5143474Y2794000D03*
G01*
X5143474Y3048000D03*
G01*
X5143474Y3302000D03*
G01*
X5397474Y3302000D03*
G01*
X5397474Y3048000D03*
G01*
X5397474Y2794000D03*
G01*
X5397474Y2540000D03*
G01*
X5397474Y2286000D03*
G01*
X5397474Y2032000D03*
G01*
X5397474Y1778000D03*
G01*
X5397474Y1524000D03*
G01*
X5397474Y1270000D03*
D13*
G01*
X6477000Y3746500D03*
G01*
X6477000Y4000500D03*
D14*
G01*
X6476987Y3492489D03*
D15*
G01*
X7302474Y3794505D03*
G01*
X7302474Y3444494D03*
D16*
G01*
X8001000Y3425418D03*
G01*
X8001000Y2924530D03*
G01*
X6925056Y381000D03*
G01*
X7425943Y381000D03*
G01*
X8000974Y1393444D03*
G01*
X8000974Y892555D03*
G01*
X8000974Y2409444D03*
G01*
X8000974Y1908555D03*
D12*
G01*
X1841500Y3556000D03*
G01*
X1841500Y3302000D03*
G01*
X1841500Y3048000D03*
G01*
X1841500Y2794000D03*
G01*
X1841500Y2540000D03*
G01*
X1841500Y1778000D03*
G01*
X1841500Y1524000D03*
G01*
X1841500Y1270000D03*
G01*
X1841500Y1016000D03*
G01*
X1841500Y762000D03*
D17*
G01*
X7315200Y2921000D03*
D12*
G01*
X7315200Y2667000D03*
G01*
X7315200Y2413000D03*
G01*
X7315200Y2159000D03*
G01*
X7315200Y1905000D03*
G01*
X7315200Y1651000D03*
G01*
X7315200Y1397000D03*
G01*
X7315200Y1143000D03*
G01*
X6083300Y1143000D03*
G01*
X6083300Y1397000D03*
G01*
X6083300Y1651000D03*
G01*
X6083300Y1905000D03*
G01*
X6083300Y2159000D03*
G01*
X6083300Y2413000D03*
G01*
X6083300Y2667000D03*
G01*
X6083300Y2921000D03*
D18*
G01*
X6096000Y761492D03*
G01*
X5841974Y762482D03*
D19*
G01*
X6350000Y761517D03*
D12*
G01*
X1397000Y1270000D03*
G01*
X1397000Y2730500D03*
G01*
X1587500Y1016000D03*
G01*
X1206500Y3556000D03*
G01*
X1206500Y1968500D03*
G01*
X5715000Y3746500D03*
G01*
X7048500Y2413000D03*
G01*
X1587500Y2476500D03*
M02*
