<?xml version="1.0" standalone="no"?>
<!DOCTYPE svg PUBLIC "-//W3C//DTD SVG 1.1//EN"
"http://www.w3.org/Graphics/SVG/1.1/DTD/svg11.dtd">
<svg width="193.716" height="331.29" viewBox="0 0 4035.74 6901.88" version="1.1"
xmlns="http://www.w3.org/2000/svg"
xmlns:xlink="http://www.w3.org/1999/xlink">
<polyline points="29.6861,6852.5 29.6861,49.3718 30.0641,45.5318 31.1841,41.8398 33.0041,38.4358 35.4521,35.4538 38.4341,33.0058 41.8381,31.1858 45.5301,30.0658 49.3701,29.6878 3986.37,29.6878 3990.21,30.0658 3993.9,31.1858 3997.31,33.0058 4000.29,35.4538 4002.74,38.4358 4004.56,41.8398 4005.68,45.5318 4006.05,49.3718 4006.05,6852.5 4005.68,6856.34 4004.56,6860.04 4002.74,6863.44 4000.29,6866.42 3997.31,6868.87 3993.9,6870.69 3990.21,6871.81 3986.37,6872.19 49.3701,6872.19 45.5301,6871.81 41.8381,6870.69 38.4341,6868.87 35.4521,6866.42 33.0041,6863.44 31.1841,6860.04 30.0641,6856.34 29.6861,6852.5" style="stroke:rgb(103,198,105);stroke-width:39.370079;fill:none;stroke-opacity:0.5;stroke-linecap:round;stroke-linejoin:round;;fill:none"/>
<polyline points="29.6861,6852.5 29.6861,49.3718 30.0641,45.5318 31.1841,41.8398 33.0041,38.4358 35.4521,35.4538 38.4341,33.0058 41.8381,31.1858 45.5301,30.0658 49.3701,29.6878 3986.37,29.6878 3990.21,30.0658 3993.9,31.1858 3997.31,33.0058 4000.29,35.4538 4002.74,38.4358 4004.56,41.8398 4005.68,45.5318 4006.05,49.3718 4006.05,6852.5 4005.68,6856.34 4004.56,6860.04 4002.74,6863.44 4000.29,6866.42 3997.31,6868.87 3993.9,6870.69 3990.21,6871.81 3986.37,6872.19 49.3701,6872.19 45.5301,6871.81 41.8381,6870.69 38.4341,6868.87 35.4521,6866.42 33.0041,6863.44 31.1841,6860.04 30.0641,6856.34 29.6861,6852.5" style="stroke:rgb(0,0,0);stroke-width:1px;fill:none;stroke-opacity:1;stroke-linecap:round;stroke-linejoin:round;;fill:none"/>
</svg>
