<?xml version="1.0" standalone="no"?>
<!DOCTYPE svg PUBLIC "-//W3C//DTD SVG 1.1//EN"
"http://www.w3.org/Graphics/SVG/1.1/DTD/svg11.dtd">
<svg width="193.716" height="331.29" viewBox="0 0 4035.74 6901.88" version="1.1"
xmlns="http://www.w3.org/2000/svg"
xmlns:xlink="http://www.w3.org/1999/xlink">
<circle cx="420.705" cy="6450.94" r="39.3701" style=""/>
<circle cx="815.035" cy="6450.94" r="39.3701" style=""/>
<circle cx="1813.93" cy="6024.95" r="39.3701" style=""/>
<circle cx="1813.93" cy="4450.15" r="39.3701" style=""/>
<circle cx="2207.63" cy="4450.15" r="39.3701" style=""/>
<circle cx="2217.87" cy="3950.94" r="39.3701" style=""/>
<circle cx="2217.87" cy="3750.94" r="39.3701" style=""/>
<circle cx="2017.87" cy="3950.94" r="39.3701" style=""/>
<circle cx="2017.87" cy="3750.94" r="39.3701" style=""/>
<circle cx="1817.87" cy="3950.94" r="39.3701" style=""/>
<circle cx="1817.87" cy="3750.94" r="39.3701" style=""/>
<circle cx="1617.87" cy="3950.94" r="39.3701" style=""/>
<circle cx="1617.87" cy="3750.94" r="39.3701" style=""/>
<circle cx="1417.87" cy="3950.94" r="39.3701" style=""/>
<circle cx="1417.87" cy="3750.94" r="39.3701" style=""/>
<circle cx="1217.87" cy="3950.94" r="39.3701" style=""/>
<circle cx="1217.87" cy="3750.94" r="39.3701" style=""/>
<circle cx="1017.87" cy="3950.94" r="39.3701" style=""/>
<circle cx="1017.87" cy="3750.94" r="39.3701" style=""/>
<circle cx="817.87" cy="3950.94" r="39.3701" style=""/>
<circle cx="817.87" cy="3750.94" r="39.3701" style=""/>
<circle cx="2217.87" cy="2350.94" r="39.3701" style=""/>
<circle cx="2017.87" cy="2350.94" r="39.3701" style=""/>
<circle cx="2217.87" cy="2150.94" r="39.3701" style=""/>
<circle cx="2017.87" cy="2150.94" r="39.3701" style=""/>
<circle cx="1817.87" cy="2350.94" r="39.3701" style=""/>
<circle cx="1617.87" cy="2350.94" r="39.3701" style=""/>
<circle cx="1417.87" cy="2350.94" r="39.3701" style=""/>
<circle cx="1217.87" cy="2350.94" r="39.3701" style=""/>
<circle cx="1017.87" cy="2350.94" r="39.3701" style=""/>
<circle cx="817.87" cy="2150.94" r="39.3701" style=""/>
<circle cx="817.87" cy="2350.94" r="39.3701" style=""/>
<circle cx="1017.87" cy="2150.94" r="39.3701" style=""/>
<circle cx="1217.87" cy="2150.94" r="39.3701" style=""/>
<circle cx="1417.87" cy="2150.94" r="39.3701" style=""/>
<circle cx="1417.87" cy="1750.94" r="39.3701" style=""/>
<circle cx="1617.87" cy="1750.94" r="39.3701" style=""/>
<circle cx="1617.87" cy="2150.94" r="39.3701" style=""/>
<circle cx="1817.87" cy="2150.94" r="39.3701" style=""/>
<circle cx="1817.87" cy="1750.94" r="39.3701" style=""/>
<circle cx="2017.87" cy="1750.94" r="39.3701" style=""/>
<circle cx="2667.87" cy="1050.94" r="39.3701" style=""/>
<circle cx="2667.87" cy="850.938" r="39.3701" style=""/>
<circle cx="2667.87" cy="650.938" r="39.3701" style=""/>
<circle cx="2345.04" cy="300.938" r="39.3701" style=""/>
<circle cx="2990.7" cy="300.938" r="39.3701" style=""/>
<circle cx="3517.87" cy="278.103" r="39.3701" style=""/>
<circle cx="3767.87" cy="550.938" r="39.3701" style=""/>
<circle cx="3517.87" cy="923.772" r="39.3701" style=""/>
<circle cx="3267.87" cy="650.938" r="39.3701" style=""/>
<circle cx="3267.87" cy="850.938" r="39.3701" style=""/>
<circle cx="3267.87" cy="1050.94" r="39.3701" style=""/>
<circle cx="3267.87" cy="1250.94" r="39.3701" style=""/>
<circle cx="3267.87" cy="1450.94" r="39.3701" style=""/>
<circle cx="3267.87" cy="1650.94" r="39.3701" style=""/>
<circle cx="3267.87" cy="1850.94" r="39.3701" style=""/>
<circle cx="2667.87" cy="1250.94" r="39.3701" style=""/>
<circle cx="2667.87" cy="1450.94" r="39.3701" style=""/>
<circle cx="2667.87" cy="1650.94" r="39.3701" style=""/>
<circle cx="2667.87" cy="1850.94" r="39.3701" style=""/>
<circle cx="3117.87" cy="2350.94" r="39.3701" style=""/>
<circle cx="3117.87" cy="2550.94" r="39.3701" style=""/>
<circle cx="3117.87" cy="2750.94" r="39.3701" style=""/>
<circle cx="3117.87" cy="2950.94" r="39.3701" style=""/>
<circle cx="3388.74" cy="4450.15" r="39.3701" style=""/>
<circle cx="2995.04" cy="4450.15" r="39.3701" style=""/>
<circle cx="3388.74" cy="6024.95" r="39.3701" style=""/>
<circle cx="767.476" cy="5050.94" r="47.2441" style=""/>
<circle cx="767.476" cy="4850.94" r="47.2441" style=""/>
<circle cx="768.264" cy="4650.94" r="47.2441" style=""/>
</svg>
