M48
METRIC,LZ,000.000
;FILE_FORMAT=3:3
;TYPE=PLATED
;Layer: PTH_Through
;EasyEDA v6.5.47, 2024-11-03 14:15:06
;0ef5ee99af4042cc86a242150398cbc4,defc1f93b7bc4f92b0c06f3051cee8fa,10
;Gerber Generator version 0.2
;Holesize 1 = 1.000 mm
T01C1.000
;Holesize 2 = 1.200 mm
T02C1.200
%
G05
G90
T01
X013970Y013970
X012355Y040005
X004155Y040005
X019050Y032095
X019050Y040295
X-007620Y021590
X-005080Y021590
X-002540Y021590
X000000Y021590
X013970Y011430
X013970Y008890
X013970Y006350
X022225Y036830
X008255Y035560
X008255Y033020
X008255Y030480
X008255Y027940
X008255Y025400
X008255Y022860
X008255Y020320
X015875Y035560
X015875Y033020
X015875Y030480
X015875Y027940
X015875Y025400
X015875Y022860
X015875Y020320
X-015276Y-038100
X-020284Y-038100
X-002590Y-012690
X017410Y-012690
X012410Y-012690
X002410Y-012690
X-002590Y-032690
X017410Y-032690
X002540Y-006350
X002540Y013970
X002540Y-003810
X002540Y016510
X000000Y-006350
X000000Y013970
X000000Y-003810
X000000Y016510
X-002540Y-006350
X-002540Y013970
X-002540Y-003810
X-002540Y016510
X-005080Y-006350
X-005080Y013970
X-005080Y-003810
X-005080Y016510
X-007620Y-006350
X-007620Y-003810
X-010160Y-006350
X-010160Y-003810
X-012700Y-006350
X-012700Y-003810
X-015240Y-006350
X-015240Y-003810
X-015240Y016510
X-015240Y013970
X-012700Y016510
X-012700Y013970
X-010160Y016510
X-010160Y013970
X-007620Y016510
X-007620Y013970
T02
X-015880Y-017780
X-015870Y-015240
X-015880Y-020320
M30


METRIC,LZ,000.000
;Layer: PTH_Through_Via
T01C0.001
G05
G90
M30

