G04 Layer: BottomPasteMaskLayer*
G04 EasyEDA v6.5.39, 2023-12-12 15:22:05*
G04 97430d4051d74cbab9520267499de571,defc1f93b7bc4f92b0c06f3051cee8fa,10*
G04 Gerber Generator version 0.2*
G04 Scale: 100 percent, Rotated: No, Reflected: No *
G04 Dimensions in millimeters *
G04 leading zeros omitted , absolute positions ,4 integer and 5 decimal *
%FSLAX45Y45*%
%MOMM*%

%AMMACRO1*21,1,$1,$2,0,0,$3*%
%ADD10MACRO1,0.7X1.2499X0.0000*%

%LPD*%
G36*
X7018985Y3577539D02*
G01*
X7008977Y3567531D01*
X7008977Y3531412D01*
X7018985Y3521405D01*
X7040067Y3521405D01*
X7050024Y3511397D01*
X7050024Y3473551D01*
X7040067Y3463594D01*
X7018985Y3463594D01*
X7008977Y3453587D01*
X7008977Y3417468D01*
X7018985Y3407460D01*
X7119721Y3407460D01*
X7129729Y3417468D01*
X7129729Y3567531D01*
X7119721Y3577539D01*
G37*
G36*
X6723227Y3577539D02*
G01*
X6713220Y3567531D01*
X6713220Y3417468D01*
X6723227Y3407460D01*
X6823964Y3407460D01*
X6833971Y3417468D01*
X6833971Y3453587D01*
X6823964Y3463594D01*
X6802932Y3463594D01*
X6792925Y3473551D01*
X6792925Y3511397D01*
X6802932Y3521405D01*
X6823964Y3521405D01*
X6833971Y3531412D01*
X6833971Y3567531D01*
X6823964Y3577539D01*
G37*
G36*
X6381496Y467410D02*
G01*
X6371488Y457403D01*
X6371488Y420370D01*
X6381496Y410362D01*
X6411976Y410362D01*
X6421983Y400354D01*
X6421983Y361645D01*
X6411976Y351637D01*
X6381496Y351637D01*
X6371488Y341630D01*
X6371488Y304596D01*
X6381496Y294589D01*
X6509969Y294589D01*
X6519976Y304596D01*
X6519976Y457403D01*
X6509969Y467410D01*
G37*
G36*
X6062980Y467410D02*
G01*
X6052972Y457403D01*
X6052972Y304596D01*
X6062980Y294589D01*
X6191504Y294589D01*
X6201511Y304596D01*
X6201511Y341630D01*
X6191504Y351637D01*
X6161024Y351637D01*
X6151016Y361645D01*
X6151016Y400354D01*
X6161024Y410362D01*
X6191504Y410362D01*
X6201511Y420370D01*
X6201511Y457403D01*
X6191504Y467410D01*
G37*
G36*
X5427980Y467410D02*
G01*
X5417972Y457403D01*
X5417972Y304596D01*
X5427980Y294589D01*
X5556504Y294589D01*
X5566511Y304596D01*
X5566511Y341630D01*
X5556504Y351637D01*
X5526024Y351637D01*
X5516016Y361645D01*
X5516016Y400354D01*
X5526024Y410362D01*
X5556504Y410362D01*
X5566511Y420370D01*
X5566511Y457403D01*
X5556504Y467410D01*
G37*
G36*
X5746496Y467410D02*
G01*
X5736488Y457403D01*
X5736488Y420370D01*
X5746496Y410362D01*
X5776976Y410362D01*
X5786983Y400354D01*
X5786983Y361645D01*
X5776976Y351637D01*
X5746496Y351637D01*
X5736488Y341630D01*
X5736488Y304596D01*
X5746496Y294589D01*
X5874969Y294589D01*
X5884976Y304596D01*
X5884976Y457403D01*
X5874969Y467410D01*
G37*
G36*
X7607096Y3090011D02*
G01*
X7597089Y3080004D01*
X7597089Y2951480D01*
X7607096Y2941472D01*
X7759903Y2941472D01*
X7769910Y2951480D01*
X7769910Y3080004D01*
X7759903Y3090011D01*
X7722870Y3090011D01*
X7712862Y3080004D01*
X7712862Y3049524D01*
X7702854Y3039516D01*
X7664094Y3039516D01*
X7654086Y3049524D01*
X7654086Y3080004D01*
X7644130Y3090011D01*
G37*
G36*
X7607096Y3408476D02*
G01*
X7597089Y3398469D01*
X7597089Y3269996D01*
X7607096Y3259988D01*
X7644130Y3259988D01*
X7654086Y3269996D01*
X7654086Y3300476D01*
X7664094Y3310483D01*
X7702854Y3310483D01*
X7712862Y3300476D01*
X7712862Y3269996D01*
X7722870Y3259988D01*
X7759903Y3259988D01*
X7769910Y3269996D01*
X7769910Y3398469D01*
X7759903Y3408476D01*
G37*
G36*
X4732985Y2879039D02*
G01*
X4722977Y2869031D01*
X4722977Y2832912D01*
X4732985Y2822905D01*
X4754067Y2822905D01*
X4764024Y2812897D01*
X4764024Y2775102D01*
X4754067Y2765094D01*
X4732985Y2765094D01*
X4722977Y2755087D01*
X4722977Y2718968D01*
X4732985Y2708960D01*
X4833721Y2708960D01*
X4843729Y2718968D01*
X4843729Y2869031D01*
X4833721Y2879039D01*
G37*
G36*
X4437227Y2879039D02*
G01*
X4427220Y2869031D01*
X4427220Y2718968D01*
X4437227Y2708960D01*
X4538014Y2708960D01*
X4547971Y2718968D01*
X4547971Y2755087D01*
X4538014Y2765094D01*
X4516932Y2765094D01*
X4506925Y2775102D01*
X4506925Y2812897D01*
X4516932Y2822905D01*
X4538014Y2822905D01*
X4547971Y2832912D01*
X4547971Y2869031D01*
X4538014Y2879039D01*
G37*
D10*
G01*
X4699000Y3299955D03*
G01*
X4604003Y3050019D03*
G01*
X4793996Y3050019D03*
M02*
