G04 Layer: BottomLayer*
G04 EasyEDA v6.5.39, 2023-12-12 15:22:05*
G04 97430d4051d74cbab9520267499de571,defc1f93b7bc4f92b0c06f3051cee8fa,10*
G04 Gerber Generator version 0.2*
G04 Scale: 100 percent, Rotated: No, Reflected: No *
G04 Dimensions in millimeters *
G04 leading zeros omitted , absolute positions ,4 integer and 5 decimal *
%FSLAX45Y45*%
%MOMM*%

%AMMACRO1*21,1,$1,$2,0,0,$3*%
%ADD10C,0.8000*%
%ADD11C,1.5000*%
%ADD12MACRO1,1.701X1.2075X-90.0000*%
%ADD13MACRO1,1.728X1.485X-90.0000*%
%ADD14MACRO1,1.728X1.485X90.0000*%
%ADD15R,1.7280X1.4850*%
%ADD16MACRO1,1.728X1.485X0.0000*%
%ADD17MACRO1,0.7X1.25X0.0000*%
%ADD18C,2.0000*%
%ADD19O,2.4999949999999997X1.9999959999999999*%
%ADD20MACRO1,2.0015X2.4994X90.0000*%
%ADD21C,2.3000*%
%ADD22C,2.6000*%
%ADD23R,2.0000X2.0000*%
%ADD24O,1.9999959999999999X2.5999948*%
%ADD25R,2.0000X2.6000*%
%ADD26R,0.0130X2.6000*%

%LPD*%
G36*
X99568Y89408D02*
G01*
X95656Y90170D01*
X92405Y92405D01*
X90170Y95656D01*
X89408Y99568D01*
X89408Y4218432D01*
X90170Y4222343D01*
X92405Y4225594D01*
X95656Y4227830D01*
X99568Y4228592D01*
X8409432Y4228592D01*
X8413343Y4227830D01*
X8416594Y4225594D01*
X8418830Y4222343D01*
X8419592Y4218432D01*
X8419592Y99568D01*
X8418830Y95656D01*
X8416594Y92405D01*
X8413343Y90170D01*
X8409432Y89408D01*
G37*

%LPC*%
G36*
X370433Y145745D02*
G01*
X391566Y145745D01*
X412597Y147624D01*
X433425Y151384D01*
X453796Y157022D01*
X473557Y164439D01*
X492607Y173634D01*
X510743Y184454D01*
X527862Y196850D01*
X543763Y210769D01*
X558342Y226060D01*
X571550Y242570D01*
X583184Y260197D01*
X593191Y278841D01*
X601472Y298246D01*
X608025Y318363D01*
X612698Y338937D01*
X615543Y359867D01*
X616508Y381000D01*
X615543Y402132D01*
X612698Y423062D01*
X608025Y443636D01*
X601472Y463753D01*
X593191Y483158D01*
X583184Y501802D01*
X571550Y519430D01*
X558342Y535940D01*
X543763Y551230D01*
X527862Y565150D01*
X510743Y577545D01*
X492607Y588365D01*
X473557Y597560D01*
X453796Y604977D01*
X433425Y610616D01*
X412597Y614375D01*
X391566Y616254D01*
X370433Y616254D01*
X349402Y614375D01*
X328574Y610616D01*
X308203Y604977D01*
X288442Y597560D01*
X269392Y588365D01*
X251256Y577545D01*
X234188Y565150D01*
X218236Y551230D01*
X203657Y535940D01*
X190449Y519430D01*
X178816Y501802D01*
X168808Y483158D01*
X160528Y463753D01*
X153974Y443636D01*
X149301Y423062D01*
X146456Y402132D01*
X145491Y381000D01*
X146456Y359867D01*
X149301Y338937D01*
X153974Y318363D01*
X160528Y298246D01*
X168808Y278841D01*
X178816Y260197D01*
X190449Y242570D01*
X203657Y226060D01*
X218236Y210769D01*
X234188Y196850D01*
X251256Y184454D01*
X269392Y173634D01*
X288442Y164439D01*
X308203Y157022D01*
X328574Y151384D01*
X349402Y147624D01*
G37*
G36*
X8117433Y145745D02*
G01*
X8138515Y145745D01*
X8159597Y147624D01*
X8180374Y151384D01*
X8200745Y157022D01*
X8220557Y164439D01*
X8239556Y173634D01*
X8257692Y184454D01*
X8274812Y196850D01*
X8290712Y210769D01*
X8305342Y226060D01*
X8318500Y242570D01*
X8330133Y260197D01*
X8340140Y278841D01*
X8348472Y298246D01*
X8354974Y318363D01*
X8359698Y338937D01*
X8362543Y359867D01*
X8363508Y381000D01*
X8362543Y402132D01*
X8359698Y423062D01*
X8354974Y443636D01*
X8348472Y463753D01*
X8340140Y483158D01*
X8330133Y501802D01*
X8318500Y519430D01*
X8305342Y535940D01*
X8290712Y551230D01*
X8274812Y565150D01*
X8257692Y577545D01*
X8239556Y588365D01*
X8220557Y597560D01*
X8200745Y604977D01*
X8180374Y610616D01*
X8159597Y614375D01*
X8138515Y616254D01*
X8117433Y616254D01*
X8096351Y614375D01*
X8075574Y610616D01*
X8055203Y604977D01*
X8035391Y597560D01*
X8016392Y588365D01*
X7998256Y577545D01*
X7981137Y565150D01*
X7965236Y551230D01*
X7950606Y535940D01*
X7937449Y519430D01*
X7925816Y501802D01*
X7915808Y483158D01*
X7907477Y463753D01*
X7900974Y443636D01*
X7896250Y423062D01*
X7893405Y402132D01*
X7892491Y381000D01*
X7893405Y359867D01*
X7896250Y338937D01*
X7900974Y318363D01*
X7907477Y298246D01*
X7915808Y278841D01*
X7925816Y260197D01*
X7937449Y242570D01*
X7950606Y226060D01*
X7965236Y210769D01*
X7981137Y196850D01*
X7998256Y184454D01*
X8016392Y173634D01*
X8035391Y164439D01*
X8055203Y157022D01*
X8075574Y151384D01*
X8096351Y147624D01*
G37*
G36*
X6915048Y170738D02*
G01*
X6935063Y170738D01*
X6954977Y172618D01*
X6974687Y176428D01*
X6993890Y182067D01*
X7012482Y189534D01*
X7030313Y198678D01*
X7047128Y209550D01*
X7062876Y221894D01*
X7077405Y235712D01*
X7090511Y250850D01*
X7102144Y267208D01*
X7112152Y284530D01*
X7120483Y302768D01*
X7127036Y321716D01*
X7131761Y341172D01*
X7134606Y360984D01*
X7135571Y381000D01*
X7134606Y401015D01*
X7131761Y420827D01*
X7127036Y440283D01*
X7120483Y459232D01*
X7112152Y477469D01*
X7102144Y494792D01*
X7090511Y511149D01*
X7077405Y526288D01*
X7062876Y540105D01*
X7047128Y552450D01*
X7030313Y563321D01*
X7012482Y572465D01*
X6993890Y579932D01*
X6974687Y585571D01*
X6954977Y589381D01*
X6935063Y591261D01*
X6915048Y591261D01*
X6895084Y589381D01*
X6875424Y585571D01*
X6856171Y579932D01*
X6837578Y572465D01*
X6819798Y563321D01*
X6802932Y552450D01*
X6787184Y540105D01*
X6783171Y537260D01*
X6779361Y536498D01*
X6641388Y536498D01*
X6637477Y537311D01*
X6634225Y539496D01*
X6604253Y569417D01*
X6602069Y572719D01*
X6601256Y576630D01*
X6601206Y669798D01*
X6600342Y682701D01*
X6599885Y686612D01*
X6597599Y699312D01*
X6596735Y703122D01*
X6593078Y715518D01*
X6591808Y719226D01*
X6586829Y731164D01*
X6585153Y734720D01*
X6578955Y746048D01*
X6576872Y749350D01*
X6569506Y759968D01*
X6567068Y763066D01*
X6558584Y772769D01*
X6533489Y797966D01*
X6531305Y801217D01*
X6530492Y805129D01*
X6530492Y891133D01*
X6529679Y902969D01*
X6527241Y914196D01*
X6523228Y924966D01*
X6517690Y935024D01*
X6510832Y944219D01*
X6508496Y946556D01*
X6506311Y949858D01*
X6505498Y953719D01*
X6505498Y1074369D01*
X6506311Y1078280D01*
X6508496Y1081532D01*
X6653326Y1226464D01*
X6661810Y1236167D01*
X6664248Y1239266D01*
X6671614Y1249883D01*
X6673697Y1253236D01*
X6679895Y1264513D01*
X6681571Y1268069D01*
X6686499Y1280007D01*
X6687820Y1283716D01*
X6691426Y1296111D01*
X6692341Y1299921D01*
X6694576Y1312672D01*
X6695084Y1316532D01*
X6695948Y1329436D01*
X6695998Y2471369D01*
X6696811Y2475280D01*
X6698996Y2478582D01*
X6982917Y2762504D01*
X6986219Y2764688D01*
X6990130Y2765501D01*
X7146442Y2765501D01*
X7150455Y2764637D01*
X7153859Y2762300D01*
X7155992Y2758795D01*
X7156602Y2754731D01*
X7155535Y2750769D01*
X7149795Y2739288D01*
X7143800Y2723337D01*
X7258862Y2723337D01*
X7258862Y2730296D01*
X7259624Y2734208D01*
X7261809Y2737510D01*
X7265111Y2739694D01*
X7269022Y2740456D01*
X7361377Y2740456D01*
X7365288Y2739694D01*
X7368540Y2737510D01*
X7370775Y2734208D01*
X7371537Y2730296D01*
X7371537Y2723337D01*
X7486446Y2723337D01*
X7484109Y2730652D01*
X7476642Y2747670D01*
X7475169Y2750312D01*
X7473899Y2754325D01*
X7474356Y2758490D01*
X7476490Y2762148D01*
X7479893Y2764586D01*
X7484008Y2765501D01*
X7592822Y2765552D01*
X7605674Y2766415D01*
X7609586Y2766872D01*
X7622336Y2769158D01*
X7626146Y2770073D01*
X7638542Y2773680D01*
X7642250Y2775000D01*
X7654188Y2779928D01*
X7657744Y2781604D01*
X7669022Y2787802D01*
X7672374Y2789885D01*
X7682992Y2797302D01*
X7686090Y2799689D01*
X7695793Y2808173D01*
X7744917Y2857246D01*
X7748219Y2859430D01*
X7752130Y2860243D01*
X7793380Y2860243D01*
X7797292Y2859430D01*
X7800594Y2857195D01*
X7802778Y2853842D01*
X7809484Y2837078D01*
X7818678Y2819298D01*
X7829499Y2802432D01*
X7841894Y2786684D01*
X7855712Y2772206D01*
X7870850Y2759100D01*
X7887157Y2747467D01*
X7904530Y2737459D01*
X7922768Y2729128D01*
X7941665Y2722575D01*
X7961122Y2717850D01*
X7980984Y2715006D01*
X8001000Y2714040D01*
X8021015Y2715006D01*
X8040827Y2717850D01*
X8060283Y2722575D01*
X8079231Y2729128D01*
X8097469Y2737459D01*
X8114792Y2747467D01*
X8131098Y2759100D01*
X8146237Y2772206D01*
X8160054Y2786684D01*
X8172450Y2802432D01*
X8183270Y2819298D01*
X8192465Y2837078D01*
X8199932Y2855722D01*
X8205571Y2874924D01*
X8209330Y2894584D01*
X8211261Y2914548D01*
X8211261Y2934563D01*
X8209330Y2954528D01*
X8205571Y2974187D01*
X8199932Y2993390D01*
X8192465Y3011982D01*
X8183270Y3029813D01*
X8172450Y3046679D01*
X8160054Y3062376D01*
X8146237Y3076905D01*
X8131098Y3090011D01*
X8114792Y3101644D01*
X8097469Y3111652D01*
X8079231Y3119983D01*
X8060283Y3126536D01*
X8040827Y3131261D01*
X8021015Y3134106D01*
X8013395Y3134461D01*
X8010296Y3135122D01*
X8007603Y3136646D01*
X8003997Y3139490D01*
X7993430Y3146856D01*
X7990078Y3148939D01*
X7978749Y3155137D01*
X7975193Y3156813D01*
X7963306Y3161792D01*
X7952181Y3165246D01*
X7948371Y3167329D01*
X7945780Y3170783D01*
X7944866Y3175000D01*
X7945780Y3179216D01*
X7948371Y3182670D01*
X7952181Y3184753D01*
X7959598Y3186887D01*
X7963306Y3188208D01*
X7975244Y3193135D01*
X7978800Y3194862D01*
X7990078Y3201060D01*
X7993430Y3203143D01*
X8003997Y3210509D01*
X8007603Y3213354D01*
X8010347Y3214878D01*
X8013395Y3215538D01*
X8021015Y3215894D01*
X8040827Y3218738D01*
X8060283Y3223463D01*
X8079231Y3230016D01*
X8097469Y3238347D01*
X8114792Y3248355D01*
X8131098Y3259988D01*
X8146237Y3273094D01*
X8160054Y3287572D01*
X8172450Y3303320D01*
X8183270Y3320186D01*
X8192465Y3337966D01*
X8199932Y3356610D01*
X8205571Y3375812D01*
X8209330Y3395472D01*
X8211261Y3415436D01*
X8211261Y3435451D01*
X8209330Y3455415D01*
X8205571Y3475075D01*
X8199932Y3494278D01*
X8192465Y3512870D01*
X8183270Y3530701D01*
X8172450Y3547567D01*
X8160054Y3563264D01*
X8146237Y3577793D01*
X8131098Y3590899D01*
X8114792Y3602532D01*
X8097469Y3612540D01*
X8079231Y3620871D01*
X8060283Y3627424D01*
X8040827Y3632149D01*
X8021015Y3634994D01*
X8001000Y3635959D01*
X7980984Y3634994D01*
X7961122Y3632149D01*
X7941665Y3627424D01*
X7922768Y3620871D01*
X7904530Y3612540D01*
X7887157Y3602532D01*
X7870850Y3590899D01*
X7855712Y3577793D01*
X7854086Y3576116D01*
X7850378Y3573627D01*
X7846009Y3572967D01*
X7841742Y3574287D01*
X7838440Y3577285D01*
X7836712Y3581400D01*
X7835341Y3589578D01*
X7834477Y3593388D01*
X7830820Y3605784D01*
X7829550Y3609492D01*
X7824571Y3621430D01*
X7822895Y3624986D01*
X7816697Y3636314D01*
X7814614Y3639616D01*
X7807248Y3650234D01*
X7804810Y3653332D01*
X7796326Y3663035D01*
X7552029Y3907332D01*
X7542326Y3915816D01*
X7539228Y3918204D01*
X7528610Y3925620D01*
X7525308Y3927703D01*
X7513980Y3933901D01*
X7510424Y3935577D01*
X7498486Y3940505D01*
X7494778Y3941826D01*
X7482382Y3945432D01*
X7478572Y3946347D01*
X7465872Y3948633D01*
X7461961Y3949090D01*
X7449108Y3949954D01*
X7423912Y3950004D01*
X7420762Y3950512D01*
X7417917Y3952036D01*
X7411110Y3957065D01*
X7394651Y3966921D01*
X7377328Y3975100D01*
X7359243Y3981602D01*
X7340650Y3986225D01*
X7321651Y3989070D01*
X7302500Y3989984D01*
X7283348Y3989070D01*
X7264349Y3986225D01*
X7245756Y3981602D01*
X7227671Y3975100D01*
X7210348Y3966921D01*
X7193889Y3957065D01*
X7178446Y3945636D01*
X7164222Y3932732D01*
X7151370Y3918508D01*
X7142175Y3906113D01*
X7139940Y3903929D01*
X7137095Y3902506D01*
X7133996Y3901998D01*
X6670751Y3901998D01*
X6666687Y3902862D01*
X6663283Y3905300D01*
X6661150Y3908958D01*
X6660642Y3913073D01*
X6661861Y3917086D01*
X6664045Y3920998D01*
X6671259Y3937812D01*
X6673240Y3944162D01*
X6545834Y3944162D01*
X6545834Y3934002D01*
X6544919Y3929735D01*
X6542278Y3926281D01*
X6538468Y3924198D01*
X6534150Y3923944D01*
X6520230Y3926078D01*
X6501739Y3926992D01*
X6452260Y3926992D01*
X6433718Y3926078D01*
X6419850Y3923944D01*
X6415481Y3924198D01*
X6411671Y3926281D01*
X6409080Y3929735D01*
X6408115Y3934002D01*
X6408115Y3944162D01*
X6280708Y3944162D01*
X6282740Y3937812D01*
X6289954Y3920998D01*
X6298793Y3904996D01*
X6309258Y3890010D01*
X6317742Y3880104D01*
X6319570Y3877005D01*
X6320180Y3873500D01*
X6319570Y3869944D01*
X6317742Y3866896D01*
X6309258Y3856990D01*
X6298793Y3841953D01*
X6289954Y3826001D01*
X6282740Y3809187D01*
X6277254Y3791712D01*
X6273546Y3773830D01*
X6271717Y3755644D01*
X6271717Y3737356D01*
X6273546Y3719169D01*
X6277254Y3701237D01*
X6282740Y3683812D01*
X6289954Y3666998D01*
X6294424Y3658870D01*
X6295694Y3654755D01*
X6295085Y3650437D01*
X6292748Y3646779D01*
X6291173Y3645204D01*
X6284264Y3636010D01*
X6278626Y3625697D01*
X6276289Y3622801D01*
X6272987Y3620973D01*
X6269278Y3620414D01*
X6265621Y3621278D01*
X6262522Y3623411D01*
X6244844Y3641090D01*
X6239408Y3646220D01*
X6233820Y3650843D01*
X6227978Y3655161D01*
X6221831Y3659124D01*
X6215481Y3662730D01*
X6208979Y3665880D01*
X6202222Y3668674D01*
X6195364Y3671062D01*
X6188354Y3672992D01*
X6181242Y3674516D01*
X6174028Y3675634D01*
X6166764Y3676294D01*
X6159347Y3676497D01*
X5895949Y3676497D01*
X5892139Y3677259D01*
X5888888Y3679393D01*
X5886653Y3682593D01*
X5885789Y3686403D01*
X5886958Y3691585D01*
X5891682Y3709568D01*
X5894527Y3727958D01*
X5895492Y3746500D01*
X5894527Y3765042D01*
X5891682Y3783431D01*
X5886958Y3801414D01*
X5880404Y3818788D01*
X5872073Y3835400D01*
X5862116Y3851097D01*
X5850585Y3865676D01*
X5837631Y3878986D01*
X5823356Y3890873D01*
X5807913Y3901236D01*
X5791504Y3909974D01*
X5774283Y3916984D01*
X5756452Y3922166D01*
X5738164Y3925519D01*
X5719622Y3926941D01*
X5701080Y3926484D01*
X5682640Y3924096D01*
X5664555Y3919829D01*
X5646978Y3913682D01*
X5630164Y3905808D01*
X5614212Y3896258D01*
X5599379Y3885082D01*
X5585714Y3872484D01*
X5583986Y3870451D01*
X5580532Y3867912D01*
X5576316Y3866997D01*
X4635652Y3866997D01*
X4628235Y3866794D01*
X4620971Y3866134D01*
X4613757Y3865016D01*
X4606645Y3863492D01*
X4599635Y3861562D01*
X4592777Y3859174D01*
X4586020Y3856380D01*
X4579467Y3853230D01*
X4573168Y3849624D01*
X4567021Y3845661D01*
X4561179Y3841343D01*
X4555591Y3836720D01*
X4550156Y3831590D01*
X3851859Y3133344D01*
X3846779Y3127908D01*
X3842105Y3122320D01*
X3837787Y3116478D01*
X3833876Y3110331D01*
X3830269Y3103981D01*
X3827068Y3097479D01*
X3824325Y3090722D01*
X3821937Y3083864D01*
X3819956Y3076854D01*
X3818432Y3069742D01*
X3817365Y3062528D01*
X3816705Y3055264D01*
X3816451Y3047847D01*
X3816451Y2403602D01*
X3815689Y2399741D01*
X3813505Y2396439D01*
X3693820Y2276754D01*
X3690467Y2274519D01*
X3686505Y2273757D01*
X3682593Y2274620D01*
X3679291Y2276906D01*
X3677158Y2280259D01*
X3676446Y2284222D01*
X3676497Y3619347D01*
X3676294Y3626764D01*
X3675634Y3634028D01*
X3674516Y3641242D01*
X3672992Y3648354D01*
X3671062Y3655364D01*
X3668674Y3662222D01*
X3665880Y3668979D01*
X3662730Y3675481D01*
X3659124Y3681831D01*
X3655161Y3687978D01*
X3650843Y3693820D01*
X3646220Y3699408D01*
X3641090Y3704844D01*
X3260344Y4085590D01*
X3254908Y4090720D01*
X3249320Y4095343D01*
X3243478Y4099661D01*
X3237331Y4103624D01*
X3230981Y4107230D01*
X3224479Y4110380D01*
X3217722Y4113174D01*
X3210864Y4115562D01*
X3203854Y4117492D01*
X3196742Y4119016D01*
X3189528Y4120134D01*
X3182264Y4120794D01*
X3174847Y4120997D01*
X1270152Y4120997D01*
X1262735Y4120794D01*
X1255471Y4120134D01*
X1248257Y4119016D01*
X1241145Y4117492D01*
X1234135Y4115562D01*
X1227277Y4113174D01*
X1220520Y4110380D01*
X1214018Y4107230D01*
X1207668Y4103624D01*
X1201521Y4099661D01*
X1195679Y4095343D01*
X1190091Y4090720D01*
X1184656Y4085590D01*
X867410Y3768344D01*
X862279Y3762908D01*
X857656Y3757320D01*
X853338Y3751478D01*
X849376Y3745331D01*
X845769Y3738981D01*
X842619Y3732479D01*
X839825Y3725722D01*
X837437Y3718864D01*
X835507Y3711854D01*
X833983Y3704742D01*
X832866Y3697528D01*
X832205Y3690264D01*
X832002Y3682847D01*
X832002Y3429152D01*
X832205Y3421735D01*
X832866Y3414471D01*
X833983Y3407257D01*
X835507Y3400145D01*
X837437Y3393135D01*
X839825Y3386277D01*
X842619Y3379520D01*
X845769Y3373018D01*
X849376Y3366668D01*
X853338Y3360521D01*
X857656Y3354679D01*
X862279Y3349091D01*
X867410Y3343656D01*
X994156Y3216910D01*
X999591Y3211779D01*
X1005179Y3207156D01*
X1011021Y3202838D01*
X1017168Y3198876D01*
X1023518Y3195269D01*
X1030020Y3192119D01*
X1036777Y3189325D01*
X1043635Y3186938D01*
X1050645Y3185007D01*
X1057757Y3183483D01*
X1064971Y3182366D01*
X1072235Y3181705D01*
X1079652Y3181502D01*
X1671472Y3181502D01*
X1675434Y3180689D01*
X1678736Y3178403D01*
X1680921Y3174949D01*
X1681632Y3170986D01*
X1680667Y3167024D01*
X1678279Y3163773D01*
X1674774Y3161741D01*
X1665020Y3157880D01*
X1658518Y3154730D01*
X1652168Y3151124D01*
X1646021Y3147161D01*
X1640179Y3142843D01*
X1634591Y3138220D01*
X1629156Y3133090D01*
X1409903Y2913888D01*
X1406245Y2911500D01*
X1401622Y2910941D01*
X1383080Y2910484D01*
X1364640Y2908096D01*
X1346555Y2903829D01*
X1328978Y2897682D01*
X1312164Y2889808D01*
X1296212Y2880258D01*
X1281379Y2869082D01*
X1267714Y2856484D01*
X1255471Y2842514D01*
X1244701Y2827375D01*
X1235557Y2811221D01*
X1228090Y2794152D01*
X1222451Y2776474D01*
X1218641Y2758287D01*
X1216710Y2739796D01*
X1216710Y2721203D01*
X1218641Y2702712D01*
X1222451Y2684526D01*
X1228090Y2666847D01*
X1235557Y2649778D01*
X1244701Y2633624D01*
X1255471Y2618486D01*
X1267714Y2604516D01*
X1281379Y2591917D01*
X1296212Y2580741D01*
X1312164Y2571191D01*
X1328978Y2563317D01*
X1346555Y2557170D01*
X1364640Y2552903D01*
X1383080Y2550515D01*
X1401622Y2550058D01*
X1407210Y2550464D01*
X1411122Y2550007D01*
X1414576Y2548077D01*
X1417015Y2544978D01*
X1418132Y2541168D01*
X1417675Y2537256D01*
X1412951Y2522474D01*
X1409141Y2504287D01*
X1407210Y2485796D01*
X1407210Y2467203D01*
X1409141Y2448712D01*
X1412951Y2430526D01*
X1418590Y2412847D01*
X1426057Y2395778D01*
X1435201Y2379624D01*
X1445971Y2364486D01*
X1458214Y2350516D01*
X1471879Y2337917D01*
X1486712Y2326741D01*
X1502664Y2317191D01*
X1519478Y2309317D01*
X1537055Y2303170D01*
X1555140Y2298903D01*
X1573580Y2296515D01*
X1592122Y2296058D01*
X1610664Y2297480D01*
X1628952Y2300833D01*
X1646783Y2306015D01*
X1664004Y2313025D01*
X1680413Y2321763D01*
X1695856Y2332126D01*
X1710131Y2344013D01*
X1723085Y2357323D01*
X1734616Y2371902D01*
X1739442Y2379472D01*
X1742135Y2382316D01*
X1745640Y2383891D01*
X1749552Y2384044D01*
X1753209Y2382723D01*
X1756664Y2380691D01*
X1773478Y2372766D01*
X1785162Y2368753D01*
X1785162Y2483662D01*
X1777288Y2483662D01*
X1773529Y2484374D01*
X1770278Y2486456D01*
X1768043Y2489555D01*
X1767027Y2495042D01*
X1764182Y2513431D01*
X1759457Y2531414D01*
X1752904Y2548788D01*
X1744573Y2565400D01*
X1734820Y2580741D01*
X1733346Y2584754D01*
X1733651Y2589072D01*
X1735734Y2592832D01*
X1739188Y2595422D01*
X1743405Y2596337D01*
X1785162Y2596337D01*
X1785162Y2609240D01*
X1785823Y2612847D01*
X1787702Y2615946D01*
X1790547Y2618232D01*
X1794002Y2619298D01*
X1797659Y2619146D01*
X1809140Y2616403D01*
X1827580Y2614015D01*
X1846122Y2613558D01*
X1864664Y2614980D01*
X1882952Y2618333D01*
X1884832Y2618841D01*
X1888591Y2619248D01*
X1892198Y2618232D01*
X1895195Y2615996D01*
X1897176Y2612796D01*
X1897837Y2609088D01*
X1897837Y2596337D01*
X2012899Y2596337D01*
X2006904Y2612288D01*
X1998573Y2628900D01*
X1988616Y2644597D01*
X1977085Y2659176D01*
X1974240Y2663190D01*
X1973478Y2667000D01*
X1974240Y2670810D01*
X1977085Y2674823D01*
X1988616Y2689402D01*
X1998573Y2705100D01*
X2006904Y2721711D01*
X2013457Y2739085D01*
X2018182Y2757068D01*
X2021027Y2775458D01*
X2021992Y2794000D01*
X2021027Y2812542D01*
X2018182Y2830931D01*
X2013457Y2848864D01*
X2006904Y2866288D01*
X1998573Y2882900D01*
X1988616Y2898597D01*
X1977085Y2913176D01*
X1974240Y2917190D01*
X1973478Y2921000D01*
X1974240Y2924810D01*
X1977085Y2928823D01*
X1988616Y2943402D01*
X1998573Y2959100D01*
X2006904Y2975711D01*
X2008378Y2979674D01*
X2010714Y2983280D01*
X2430780Y3403346D01*
X2434285Y3405632D01*
X2438349Y3406343D01*
X2442362Y3405327D01*
X2445664Y3402837D01*
X2447696Y3399231D01*
X2448102Y3395116D01*
X2446832Y3391154D01*
X2442057Y3382721D01*
X2434590Y3365652D01*
X2432253Y3358337D01*
X2547162Y3358337D01*
X2547162Y3473246D01*
X2535478Y3469182D01*
X2518664Y3461308D01*
X2514701Y3458921D01*
X2510739Y3457549D01*
X2506573Y3457905D01*
X2502916Y3459886D01*
X2500325Y3463188D01*
X2499309Y3467201D01*
X2500020Y3471316D01*
X2502255Y3474821D01*
X2523439Y3496005D01*
X2526741Y3498189D01*
X2530652Y3498951D01*
X2820060Y3498951D01*
X2824175Y3498087D01*
X2827578Y3495649D01*
X2829712Y3492042D01*
X2830169Y3487877D01*
X2828950Y3483864D01*
X2826207Y3480714D01*
X2822397Y3478936D01*
X2807055Y3475329D01*
X2789478Y3469182D01*
X2772664Y3461308D01*
X2756712Y3451758D01*
X2741879Y3440582D01*
X2737459Y3436518D01*
X2734360Y3434587D01*
X2730804Y3433826D01*
X2727198Y3434384D01*
X2724048Y3436162D01*
X2711856Y3446373D01*
X2696413Y3456736D01*
X2680004Y3465474D01*
X2662783Y3472484D01*
X2659837Y3473348D01*
X2659837Y3358337D01*
X2672588Y3358337D01*
X2676956Y3357372D01*
X2680512Y3354578D01*
X2682494Y3350564D01*
X2682544Y3346094D01*
X2679141Y3329787D01*
X2677210Y3311296D01*
X2677210Y3292703D01*
X2679141Y3274212D01*
X2682544Y3257905D01*
X2682494Y3253384D01*
X2680512Y3249422D01*
X2676956Y3246628D01*
X2672588Y3245662D01*
X2659837Y3245662D01*
X2659837Y3232861D01*
X2659176Y3229203D01*
X2657195Y3226003D01*
X2654198Y3223768D01*
X2650591Y3222752D01*
X2646832Y3223107D01*
X2644952Y3223666D01*
X2626664Y3227019D01*
X2608122Y3228441D01*
X2589580Y3227984D01*
X2571140Y3225596D01*
X2559659Y3222853D01*
X2556002Y3222650D01*
X2552547Y3223768D01*
X2549652Y3226054D01*
X2547772Y3229152D01*
X2547162Y3232759D01*
X2547162Y3245662D01*
X2432253Y3245662D01*
X2434590Y3238296D01*
X2442057Y3221278D01*
X2451201Y3205124D01*
X2461971Y3189986D01*
X2469235Y3181705D01*
X2471115Y3178556D01*
X2471775Y3175000D01*
X2471115Y3171393D01*
X2469235Y3168294D01*
X2461971Y3160014D01*
X2451201Y3144875D01*
X2442057Y3128721D01*
X2434590Y3111652D01*
X2428951Y3093974D01*
X2425141Y3075787D01*
X2423210Y3057296D01*
X2423210Y3038703D01*
X2425141Y3020212D01*
X2428951Y3002026D01*
X2434590Y2984296D01*
X2442057Y2967278D01*
X2451201Y2951124D01*
X2461971Y2935986D01*
X2469235Y2927705D01*
X2471115Y2924556D01*
X2471775Y2921000D01*
X2471115Y2917393D01*
X2469235Y2914294D01*
X2461971Y2906014D01*
X2451201Y2890875D01*
X2442057Y2874721D01*
X2434590Y2857652D01*
X2428951Y2839974D01*
X2425141Y2821787D01*
X2423210Y2803296D01*
X2423210Y2784703D01*
X2425141Y2766212D01*
X2428951Y2748026D01*
X2434590Y2730296D01*
X2442057Y2713278D01*
X2451201Y2697124D01*
X2461971Y2681986D01*
X2469235Y2673705D01*
X2471115Y2670556D01*
X2471775Y2667000D01*
X2471115Y2663393D01*
X2469235Y2660294D01*
X2461971Y2652014D01*
X2451201Y2636875D01*
X2442057Y2620721D01*
X2434590Y2603652D01*
X2428951Y2585974D01*
X2425141Y2567787D01*
X2423210Y2549296D01*
X2423210Y2530703D01*
X2425141Y2512212D01*
X2428951Y2494026D01*
X2434590Y2476296D01*
X2442057Y2459278D01*
X2451201Y2443124D01*
X2461971Y2427986D01*
X2469235Y2419705D01*
X2471115Y2416556D01*
X2471775Y2413000D01*
X2471115Y2409393D01*
X2469235Y2406294D01*
X2461971Y2398014D01*
X2451201Y2382875D01*
X2442057Y2366721D01*
X2434590Y2349652D01*
X2428951Y2331974D01*
X2425141Y2313787D01*
X2423210Y2295296D01*
X2423210Y2276703D01*
X2425141Y2258212D01*
X2428951Y2240026D01*
X2434590Y2222296D01*
X2442057Y2205278D01*
X2451201Y2189124D01*
X2461971Y2173986D01*
X2469235Y2165705D01*
X2471115Y2162556D01*
X2471775Y2159000D01*
X2471115Y2155393D01*
X2469235Y2152294D01*
X2461971Y2144014D01*
X2451201Y2128875D01*
X2442057Y2112721D01*
X2434590Y2095652D01*
X2428951Y2077974D01*
X2425141Y2059787D01*
X2423210Y2041296D01*
X2423210Y2022703D01*
X2425141Y2004212D01*
X2428951Y1986025D01*
X2434590Y1968296D01*
X2442057Y1951278D01*
X2451201Y1935124D01*
X2461971Y1919986D01*
X2469235Y1911705D01*
X2471115Y1908556D01*
X2471775Y1905000D01*
X2471115Y1901393D01*
X2469235Y1898294D01*
X2461971Y1890014D01*
X2451201Y1874875D01*
X2442057Y1858721D01*
X2434590Y1841652D01*
X2428951Y1823974D01*
X2425141Y1805787D01*
X2423210Y1787296D01*
X2423210Y1768703D01*
X2425141Y1750212D01*
X2428951Y1732025D01*
X2434590Y1714296D01*
X2442057Y1697278D01*
X2451201Y1681124D01*
X2461971Y1665986D01*
X2469235Y1657705D01*
X2471115Y1654556D01*
X2471775Y1651000D01*
X2471115Y1647393D01*
X2469235Y1644294D01*
X2461971Y1636014D01*
X2451201Y1620875D01*
X2442057Y1604721D01*
X2434590Y1587652D01*
X2428951Y1569974D01*
X2425141Y1551787D01*
X2423210Y1533296D01*
X2423210Y1514703D01*
X2425141Y1496212D01*
X2428951Y1478026D01*
X2434590Y1460296D01*
X2442057Y1443278D01*
X2451201Y1427124D01*
X2461971Y1411986D01*
X2469235Y1403705D01*
X2471115Y1400556D01*
X2471775Y1397000D01*
X2471115Y1393393D01*
X2469235Y1390294D01*
X2461971Y1382014D01*
X2451201Y1366875D01*
X2442057Y1350721D01*
X2434590Y1333652D01*
X2428951Y1315974D01*
X2426614Y1304899D01*
X2424938Y1300988D01*
X2421788Y1298194D01*
X2417775Y1296873D01*
X2413558Y1297279D01*
X2409901Y1299413D01*
X2407412Y1302816D01*
X2406497Y1306931D01*
X2406497Y1396847D01*
X2406294Y1404264D01*
X2405634Y1411528D01*
X2404516Y1418742D01*
X2402992Y1425854D01*
X2401062Y1432864D01*
X2398674Y1439722D01*
X2395880Y1446479D01*
X2392730Y1452981D01*
X2389124Y1459331D01*
X2385161Y1465478D01*
X2380843Y1471320D01*
X2376220Y1476908D01*
X2371090Y1482344D01*
X2244293Y1609090D01*
X2238908Y1614220D01*
X2233320Y1618843D01*
X2227427Y1623161D01*
X2221331Y1627124D01*
X2214981Y1630730D01*
X2208428Y1633880D01*
X2201722Y1636674D01*
X2194814Y1639062D01*
X2187803Y1640992D01*
X2180691Y1642516D01*
X2173528Y1643634D01*
X2166264Y1644294D01*
X2158847Y1644497D01*
X1986737Y1644497D01*
X1982368Y1645513D01*
X1978812Y1648307D01*
X1976831Y1652371D01*
X1976831Y1656892D01*
X1978761Y1661007D01*
X1988616Y1673402D01*
X1998573Y1689100D01*
X2006904Y1705711D01*
X2013457Y1723085D01*
X2018182Y1741068D01*
X2021027Y1759457D01*
X2021992Y1778000D01*
X2021027Y1796542D01*
X2018182Y1814931D01*
X2013457Y1832914D01*
X2006904Y1850288D01*
X1998573Y1866900D01*
X1988616Y1882597D01*
X1977085Y1897176D01*
X1964131Y1910486D01*
X1949856Y1922373D01*
X1934413Y1932736D01*
X1918004Y1941474D01*
X1900783Y1948484D01*
X1882952Y1953666D01*
X1864664Y1957019D01*
X1846122Y1958441D01*
X1827580Y1957984D01*
X1809140Y1955596D01*
X1791055Y1951329D01*
X1773478Y1945182D01*
X1756664Y1937308D01*
X1740712Y1927758D01*
X1725879Y1916582D01*
X1712214Y1903984D01*
X1710486Y1901952D01*
X1707032Y1899412D01*
X1702816Y1898497D01*
X1451102Y1898497D01*
X1447241Y1899310D01*
X1443939Y1901494D01*
X1389684Y1955749D01*
X1387398Y1959254D01*
X1386738Y1963420D01*
X1386992Y1968500D01*
X1386027Y1987042D01*
X1383182Y2005431D01*
X1378458Y2023414D01*
X1371904Y2040788D01*
X1363573Y2057400D01*
X1353616Y2073097D01*
X1342085Y2087676D01*
X1329131Y2100986D01*
X1314856Y2112873D01*
X1299413Y2123236D01*
X1283004Y2131974D01*
X1265783Y2138984D01*
X1247952Y2144166D01*
X1229664Y2147519D01*
X1211122Y2148941D01*
X1192580Y2148484D01*
X1174140Y2146096D01*
X1156055Y2141829D01*
X1138478Y2135682D01*
X1121664Y2127808D01*
X1105712Y2118258D01*
X1090879Y2107082D01*
X1077214Y2094484D01*
X1064971Y2080514D01*
X1054201Y2065375D01*
X1045057Y2049221D01*
X1037590Y2032152D01*
X1031951Y2014474D01*
X1028141Y1996287D01*
X1026210Y1977796D01*
X1026210Y1959203D01*
X1028141Y1940712D01*
X1031951Y1922525D01*
X1037590Y1904847D01*
X1045057Y1887778D01*
X1054201Y1871624D01*
X1064971Y1856486D01*
X1077214Y1842516D01*
X1090879Y1829917D01*
X1105712Y1818741D01*
X1121664Y1809191D01*
X1138478Y1801317D01*
X1156055Y1795170D01*
X1174140Y1790903D01*
X1192580Y1788515D01*
X1211478Y1788058D01*
X1215745Y1787499D01*
X1219403Y1785112D01*
X1311656Y1692910D01*
X1317091Y1687779D01*
X1322679Y1683156D01*
X1328521Y1678838D01*
X1334668Y1674875D01*
X1340967Y1671269D01*
X1347520Y1668119D01*
X1354277Y1665325D01*
X1361135Y1662938D01*
X1368145Y1661007D01*
X1375257Y1659483D01*
X1382471Y1658366D01*
X1389735Y1657705D01*
X1397152Y1657502D01*
X1696364Y1657502D01*
X1700174Y1656740D01*
X1703374Y1654657D01*
X1705610Y1651507D01*
X1706524Y1647748D01*
X1705965Y1643938D01*
X1703984Y1640636D01*
X1699971Y1636014D01*
X1689201Y1620875D01*
X1680057Y1604721D01*
X1672589Y1587652D01*
X1666951Y1569974D01*
X1663141Y1551787D01*
X1661210Y1533296D01*
X1661210Y1514703D01*
X1663141Y1496212D01*
X1666951Y1478026D01*
X1672589Y1460347D01*
X1680057Y1443278D01*
X1689201Y1427124D01*
X1699971Y1411986D01*
X1703984Y1407363D01*
X1705965Y1404061D01*
X1706524Y1400251D01*
X1705610Y1396492D01*
X1703374Y1393342D01*
X1700174Y1391259D01*
X1696364Y1390497D01*
X1535531Y1390497D01*
X1531620Y1391310D01*
X1528267Y1393596D01*
X1519631Y1402486D01*
X1505356Y1414373D01*
X1489913Y1424736D01*
X1473504Y1433474D01*
X1456283Y1440484D01*
X1438452Y1445666D01*
X1420164Y1449019D01*
X1401622Y1450441D01*
X1383080Y1449984D01*
X1364640Y1447596D01*
X1346555Y1443329D01*
X1328978Y1437182D01*
X1312164Y1429308D01*
X1296212Y1419758D01*
X1281379Y1408582D01*
X1267714Y1395984D01*
X1255471Y1382014D01*
X1244701Y1366875D01*
X1235557Y1350721D01*
X1228090Y1333652D01*
X1222451Y1315974D01*
X1218641Y1297787D01*
X1216710Y1279296D01*
X1216710Y1260703D01*
X1218641Y1242212D01*
X1222451Y1224026D01*
X1228090Y1206347D01*
X1235557Y1189278D01*
X1244701Y1173124D01*
X1255471Y1157986D01*
X1267714Y1144016D01*
X1281379Y1131417D01*
X1296212Y1120241D01*
X1312164Y1110691D01*
X1328978Y1102817D01*
X1346555Y1096670D01*
X1364640Y1092403D01*
X1383080Y1090015D01*
X1401622Y1089558D01*
X1407210Y1089964D01*
X1411122Y1089507D01*
X1414576Y1087577D01*
X1417015Y1084478D01*
X1418132Y1080668D01*
X1417675Y1076756D01*
X1412951Y1061974D01*
X1409141Y1043787D01*
X1407210Y1025296D01*
X1407210Y1006703D01*
X1409141Y988212D01*
X1412951Y970026D01*
X1418590Y952347D01*
X1426057Y935278D01*
X1435201Y919124D01*
X1445971Y903986D01*
X1458214Y890016D01*
X1471879Y877417D01*
X1486712Y866241D01*
X1502664Y856691D01*
X1519478Y848817D01*
X1537055Y842670D01*
X1555140Y838403D01*
X1573580Y836015D01*
X1592122Y835558D01*
X1610664Y836980D01*
X1628952Y840333D01*
X1646783Y845515D01*
X1664004Y852525D01*
X1668678Y854049D01*
X1672843Y853490D01*
X1676400Y851357D01*
X1678787Y848004D01*
X1679651Y843940D01*
X1678787Y839825D01*
X1672589Y825652D01*
X1670253Y818337D01*
X1785162Y818337D01*
X1785162Y831240D01*
X1785823Y834847D01*
X1787702Y837946D01*
X1790547Y840232D01*
X1794002Y841298D01*
X1797659Y841146D01*
X1809140Y838403D01*
X1827580Y836015D01*
X1846122Y835558D01*
X1864664Y836980D01*
X1882952Y840333D01*
X1884832Y840892D01*
X1888591Y841248D01*
X1892198Y840232D01*
X1895195Y837996D01*
X1897176Y834796D01*
X1897837Y831138D01*
X1897837Y818337D01*
X1964842Y818337D01*
X1968703Y817575D01*
X1972005Y815390D01*
X1974189Y812088D01*
X1975002Y808177D01*
X1975002Y762152D01*
X1975205Y754735D01*
X1975866Y747471D01*
X1976983Y740308D01*
X1978507Y733145D01*
X1980438Y726135D01*
X1982876Y719124D01*
X1983435Y715314D01*
X1982520Y711606D01*
X1980285Y708456D01*
X1977034Y706374D01*
X1973275Y705662D01*
X1897837Y705662D01*
X1897837Y590651D01*
X1900783Y591515D01*
X1918004Y598525D01*
X1934413Y607263D01*
X1949856Y617626D01*
X1964131Y629513D01*
X1977085Y642823D01*
X1988616Y657402D01*
X1997760Y671830D01*
X2000961Y674979D01*
X2005228Y676452D01*
X2009698Y675944D01*
X2013508Y673557D01*
X2264156Y422909D01*
X2269591Y417779D01*
X2275179Y413156D01*
X2281021Y408838D01*
X2287168Y404876D01*
X2293518Y401269D01*
X2300020Y398119D01*
X2306777Y395325D01*
X2313635Y392938D01*
X2320645Y391007D01*
X2327757Y389483D01*
X2334971Y388366D01*
X2342235Y387705D01*
X2349652Y387502D01*
X3111347Y387502D01*
X3118764Y387705D01*
X3126028Y388366D01*
X3133242Y389483D01*
X3140354Y391007D01*
X3147364Y392938D01*
X3154222Y395325D01*
X3160979Y398119D01*
X3167481Y401269D01*
X3173831Y404876D01*
X3179978Y408838D01*
X3185820Y413156D01*
X3191408Y417779D01*
X3196844Y422909D01*
X3450590Y676656D01*
X3455720Y682091D01*
X3460343Y687679D01*
X3464661Y693521D01*
X3468624Y699668D01*
X3472230Y706018D01*
X3475380Y712520D01*
X3478174Y719277D01*
X3480562Y726135D01*
X3482492Y733145D01*
X3484016Y740257D01*
X3485134Y747471D01*
X3485794Y754735D01*
X3485997Y762152D01*
X3485997Y1269847D01*
X3485794Y1277264D01*
X3485134Y1284528D01*
X3484016Y1291742D01*
X3482492Y1298854D01*
X3480562Y1305864D01*
X3478174Y1312722D01*
X3475380Y1319479D01*
X3472230Y1325981D01*
X3468624Y1332331D01*
X3464661Y1338478D01*
X3460343Y1344320D01*
X3455720Y1349908D01*
X3450590Y1355344D01*
X3289096Y1516837D01*
X3286912Y1520088D01*
X3286150Y1524000D01*
X3286912Y1527911D01*
X3289096Y1531162D01*
X4022090Y2264156D01*
X4027170Y2269591D01*
X4031843Y2275179D01*
X4036161Y2281021D01*
X4040124Y2287168D01*
X4043679Y2293467D01*
X4046880Y2300020D01*
X4049674Y2306777D01*
X4052062Y2313635D01*
X4053992Y2320645D01*
X4055516Y2327757D01*
X4056634Y2334971D01*
X4057294Y2342235D01*
X4057497Y2349652D01*
X4057497Y2993847D01*
X4058259Y2997758D01*
X4060494Y3001060D01*
X4682439Y3623005D01*
X4685741Y3625189D01*
X4689602Y3626002D01*
X4701032Y3626002D01*
X4704892Y3625189D01*
X4708194Y3623005D01*
X4710379Y3619703D01*
X4711192Y3615842D01*
X4710379Y3611930D01*
X4708194Y3608628D01*
X4613910Y3514344D01*
X4608779Y3508908D01*
X4604156Y3503320D01*
X4599838Y3497478D01*
X4595876Y3491331D01*
X4592269Y3484981D01*
X4589119Y3478479D01*
X4586325Y3471722D01*
X4583938Y3464864D01*
X4582007Y3457854D01*
X4580483Y3450742D01*
X4579366Y3443528D01*
X4578705Y3436264D01*
X4578502Y3428847D01*
X4578502Y3300272D01*
X4579366Y3285439D01*
X4582007Y3271113D01*
X4583023Y3267913D01*
X4583480Y3264865D01*
X4583480Y3237839D01*
X4584293Y3226003D01*
X4586782Y3214776D01*
X4589729Y3206750D01*
X4590389Y3202889D01*
X4589526Y3199130D01*
X4587290Y3195929D01*
X4584039Y3193796D01*
X4580229Y3193034D01*
X4569358Y3193034D01*
X4557522Y3192221D01*
X4546295Y3189732D01*
X4535576Y3185718D01*
X4525467Y3180232D01*
X4516272Y3173374D01*
X4508144Y3165246D01*
X4501286Y3156051D01*
X4495800Y3145942D01*
X4491786Y3135223D01*
X4489297Y3123996D01*
X4488484Y3112160D01*
X4488484Y3087624D01*
X4580128Y3087624D01*
X4580128Y3184956D01*
X4580991Y3189071D01*
X4583480Y3192475D01*
X4587087Y3194608D01*
X4591253Y3195066D01*
X4595266Y3193846D01*
X4598416Y3191052D01*
X4603140Y3184753D01*
X4611268Y3176625D01*
X4620463Y3169767D01*
X4622546Y3168599D01*
X4625340Y3166364D01*
X4627219Y3163265D01*
X4627829Y3159709D01*
X4627829Y3087624D01*
X4658360Y3087624D01*
X4662017Y3086963D01*
X4665218Y3084982D01*
X4667453Y3082036D01*
X4668469Y3078429D01*
X4668164Y3074720D01*
X4666335Y3068269D01*
X4664811Y3061157D01*
X4663744Y3053943D01*
X4663084Y3046679D01*
X4662830Y3039262D01*
X4662830Y3022600D01*
X4662068Y3018688D01*
X4659884Y3015386D01*
X4656582Y3013202D01*
X4652670Y3012440D01*
X4627829Y3012440D01*
X4627829Y2896870D01*
X4627067Y2892958D01*
X4624882Y2889656D01*
X4621580Y2887472D01*
X4617669Y2886710D01*
X4590288Y2886710D01*
X4586427Y2887472D01*
X4583125Y2889656D01*
X4580940Y2892958D01*
X4580128Y2896870D01*
X4580128Y3012440D01*
X4488484Y3012440D01*
X4488484Y2987903D01*
X4489043Y2979877D01*
X4513986Y2979877D01*
X4517898Y2979115D01*
X4521200Y2976930D01*
X4523384Y2973628D01*
X4524146Y2969717D01*
X4524146Y2842869D01*
X4632299Y2842869D01*
X4636211Y2842107D01*
X4639513Y2839872D01*
X4641697Y2836621D01*
X4642459Y2832709D01*
X4642459Y2755290D01*
X4641697Y2751378D01*
X4639513Y2748076D01*
X4636211Y2745892D01*
X4632299Y2745130D01*
X4524146Y2745130D01*
X4524146Y2628442D01*
X4547616Y2628442D01*
X4559452Y2629255D01*
X4570679Y2631694D01*
X4581448Y2635707D01*
X4591507Y2641244D01*
X4600702Y2648102D01*
X4608830Y2656230D01*
X4615688Y2665425D01*
X4621225Y2675483D01*
X4627118Y2691434D01*
X4629912Y2694178D01*
X4633518Y2695651D01*
X4637430Y2695651D01*
X4641088Y2694178D01*
X4643882Y2691434D01*
X4649774Y2675483D01*
X4655261Y2665425D01*
X4662170Y2656230D01*
X4670298Y2648102D01*
X4679492Y2641244D01*
X4689551Y2635707D01*
X4700320Y2631694D01*
X4711547Y2629255D01*
X4723333Y2628442D01*
X4843373Y2628442D01*
X4855210Y2629255D01*
X4866436Y2631694D01*
X4877155Y2635707D01*
X4887264Y2641244D01*
X4896459Y2648102D01*
X4904587Y2656230D01*
X4911445Y2665425D01*
X4912969Y2668168D01*
X4915204Y2671013D01*
X4918354Y2672842D01*
X4921859Y2673502D01*
X4998364Y2673502D01*
X5002123Y2672740D01*
X5005374Y2670657D01*
X5007610Y2667508D01*
X5008524Y2663748D01*
X5007965Y2659938D01*
X5005984Y2656586D01*
X5001971Y2652014D01*
X4991201Y2636875D01*
X4982057Y2620721D01*
X4974590Y2603652D01*
X4968951Y2585974D01*
X4965141Y2567787D01*
X4963210Y2549296D01*
X4963210Y2530703D01*
X4965141Y2512212D01*
X4968951Y2494026D01*
X4974590Y2476296D01*
X4982057Y2459278D01*
X4991201Y2443124D01*
X5001971Y2427986D01*
X5009235Y2419705D01*
X5011115Y2416556D01*
X5011775Y2413000D01*
X5011115Y2409393D01*
X5009235Y2406294D01*
X5001971Y2398014D01*
X4991201Y2382875D01*
X4982057Y2366721D01*
X4974590Y2349652D01*
X4968951Y2331974D01*
X4965141Y2313787D01*
X4963210Y2295296D01*
X4963210Y2276703D01*
X4965141Y2258212D01*
X4968951Y2240026D01*
X4974590Y2222296D01*
X4982057Y2205278D01*
X4991201Y2189124D01*
X5001971Y2173986D01*
X5009235Y2165705D01*
X5011115Y2162556D01*
X5011775Y2159000D01*
X5011115Y2155393D01*
X5009235Y2152294D01*
X5001971Y2144014D01*
X4991201Y2128875D01*
X4982057Y2112721D01*
X4974590Y2095652D01*
X4968951Y2077974D01*
X4965141Y2059787D01*
X4963210Y2041296D01*
X4963210Y2022703D01*
X4965141Y2004212D01*
X4968951Y1986025D01*
X4974590Y1968296D01*
X4982057Y1951278D01*
X4991201Y1935124D01*
X5001971Y1919986D01*
X5009235Y1911705D01*
X5011115Y1908556D01*
X5011775Y1905000D01*
X5011115Y1901393D01*
X5009235Y1898294D01*
X5001971Y1890014D01*
X4991201Y1874875D01*
X4982057Y1858721D01*
X4974590Y1841652D01*
X4972253Y1834337D01*
X5087162Y1834337D01*
X5087162Y1847240D01*
X5087772Y1850847D01*
X5089652Y1853946D01*
X5092547Y1856232D01*
X5096002Y1857298D01*
X5099659Y1857146D01*
X5111140Y1854403D01*
X5129580Y1852015D01*
X5148122Y1851558D01*
X5166664Y1852980D01*
X5184952Y1856333D01*
X5186832Y1856841D01*
X5190591Y1857248D01*
X5194198Y1856232D01*
X5197195Y1853996D01*
X5199176Y1850796D01*
X5199837Y1847088D01*
X5199837Y1834337D01*
X5212588Y1834337D01*
X5216956Y1833372D01*
X5220512Y1830578D01*
X5222494Y1826564D01*
X5222544Y1822094D01*
X5219141Y1805787D01*
X5217210Y1787296D01*
X5217210Y1768703D01*
X5219141Y1750212D01*
X5222544Y1733905D01*
X5222494Y1729384D01*
X5220512Y1725422D01*
X5216956Y1722628D01*
X5212588Y1721662D01*
X5199837Y1721662D01*
X5199837Y1708861D01*
X5199176Y1705203D01*
X5197195Y1702003D01*
X5194198Y1699768D01*
X5190591Y1698752D01*
X5186832Y1699107D01*
X5184952Y1699666D01*
X5166664Y1703019D01*
X5148122Y1704441D01*
X5129580Y1703984D01*
X5111140Y1701596D01*
X5099659Y1698853D01*
X5096002Y1698650D01*
X5092547Y1699768D01*
X5089652Y1702054D01*
X5087772Y1705152D01*
X5087162Y1708759D01*
X5087162Y1721662D01*
X4972253Y1721662D01*
X4974590Y1714296D01*
X4982057Y1697278D01*
X4991201Y1681124D01*
X5001971Y1665986D01*
X5007000Y1660245D01*
X5009083Y1656435D01*
X5009438Y1652168D01*
X5007965Y1648104D01*
X5004917Y1645005D01*
X5000904Y1643481D01*
X4994757Y1642516D01*
X4987645Y1640992D01*
X4980635Y1639062D01*
X4973777Y1636674D01*
X4967020Y1633880D01*
X4960518Y1630730D01*
X4954168Y1627124D01*
X4948021Y1623161D01*
X4942179Y1618843D01*
X4936591Y1614220D01*
X4931156Y1609090D01*
X4804410Y1482344D01*
X4799279Y1476908D01*
X4794656Y1471320D01*
X4790338Y1465478D01*
X4786376Y1459331D01*
X4782769Y1452981D01*
X4779619Y1446479D01*
X4776825Y1439722D01*
X4774438Y1432864D01*
X4772507Y1425854D01*
X4770983Y1418742D01*
X4769866Y1411528D01*
X4769205Y1404264D01*
X4769002Y1396847D01*
X4769002Y635152D01*
X4769205Y627735D01*
X4769866Y620471D01*
X4770983Y613257D01*
X4772507Y606145D01*
X4774438Y599135D01*
X4776825Y592277D01*
X4779619Y585520D01*
X4782769Y579018D01*
X4786376Y572668D01*
X4790338Y566521D01*
X4794656Y560679D01*
X4799279Y555091D01*
X4804410Y549656D01*
X5058156Y295910D01*
X5063591Y290779D01*
X5069179Y286156D01*
X5075021Y281838D01*
X5081168Y277876D01*
X5087518Y274269D01*
X5094020Y271119D01*
X5100777Y268325D01*
X5107635Y265938D01*
X5114645Y264007D01*
X5121757Y262483D01*
X5128971Y261366D01*
X5136235Y260705D01*
X5143652Y260502D01*
X5339130Y260502D01*
X5342686Y259842D01*
X5345785Y258013D01*
X5348020Y255168D01*
X5350256Y251104D01*
X5357164Y241909D01*
X5365292Y233781D01*
X5374487Y226872D01*
X5384546Y221386D01*
X5395315Y217373D01*
X5406542Y214934D01*
X5418328Y214071D01*
X5566105Y214071D01*
X5577941Y214934D01*
X5589168Y217373D01*
X5599938Y221386D01*
X5609996Y226872D01*
X5619191Y233781D01*
X5627319Y241909D01*
X5634228Y251104D01*
X5639714Y261162D01*
X5641949Y267208D01*
X5644134Y270713D01*
X5647486Y272999D01*
X5651500Y273862D01*
X5655513Y272999D01*
X5658866Y270713D01*
X5660999Y267208D01*
X5663285Y261162D01*
X5668772Y251104D01*
X5675680Y241909D01*
X5683758Y233781D01*
X5692952Y226872D01*
X5703062Y221386D01*
X5713831Y217373D01*
X5725058Y214934D01*
X5736844Y214071D01*
X5767273Y214071D01*
X5767273Y331470D01*
X5657189Y331470D01*
X5653278Y332232D01*
X5649976Y334416D01*
X5647791Y337718D01*
X5647029Y341630D01*
X5647029Y420370D01*
X5647791Y424281D01*
X5649976Y427583D01*
X5653278Y429768D01*
X5657189Y430530D01*
X5767273Y430530D01*
X5767273Y548233D01*
X5765596Y547928D01*
X5759399Y547928D01*
X5755487Y548690D01*
X5752185Y550875D01*
X5750001Y554177D01*
X5749239Y558088D01*
X5750001Y561949D01*
X5752185Y565251D01*
X5754065Y567131D01*
X5757367Y569315D01*
X5761329Y570077D01*
X5765241Y569264D01*
X5769559Y567436D01*
X5772810Y565200D01*
X5774436Y562711D01*
X5776722Y563321D01*
X5780481Y562864D01*
X5796737Y557784D01*
X5814669Y554075D01*
X5832856Y552246D01*
X5844032Y552246D01*
X5847943Y551484D01*
X5851245Y549249D01*
X5853430Y545947D01*
X5854192Y542086D01*
X5854192Y430530D01*
X6083757Y430530D01*
X6083757Y531114D01*
X6065062Y533095D01*
X6047740Y536651D01*
X6044539Y537921D01*
X6041948Y540156D01*
X6040221Y543204D01*
X6039662Y546608D01*
X6039662Y690168D01*
X6029706Y690168D01*
X6025489Y691083D01*
X6021984Y693724D01*
X6019952Y697534D01*
X6019647Y701852D01*
X6021578Y714248D01*
X6022492Y732790D01*
X6022492Y792276D01*
X6021578Y810768D01*
X6020003Y821182D01*
X6020257Y825500D01*
X6022289Y829310D01*
X6025794Y831951D01*
X6030010Y832866D01*
X6039662Y832866D01*
X6039662Y955548D01*
X6040577Y959866D01*
X6043269Y963320D01*
X6047232Y965352D01*
X6051600Y965555D01*
X6060135Y963980D01*
X6078626Y962558D01*
X6097219Y963015D01*
X6115659Y965403D01*
X6133744Y969670D01*
X6138824Y971448D01*
X6142634Y972007D01*
X6146393Y971092D01*
X6149543Y968857D01*
X6151626Y965657D01*
X6152337Y961847D01*
X6152337Y832866D01*
X6159296Y832866D01*
X6163208Y832103D01*
X6166510Y829868D01*
X6168694Y826566D01*
X6169456Y822706D01*
X6169456Y700328D01*
X6168694Y696417D01*
X6166510Y693115D01*
X6163208Y690930D01*
X6159296Y690168D01*
X6152337Y690168D01*
X6152337Y568248D01*
X6160566Y568248D01*
X6164427Y567486D01*
X6167678Y565302D01*
X6170726Y567436D01*
X6175502Y569468D01*
X6183579Y573938D01*
X6187744Y575208D01*
X6192062Y574598D01*
X6195720Y572262D01*
X6197295Y570687D01*
X6203238Y566216D01*
X6206032Y563067D01*
X6207252Y559054D01*
X6206794Y554888D01*
X6204661Y551230D01*
X6201257Y548792D01*
X6197142Y547928D01*
X6174740Y547928D01*
X6170726Y548792D01*
X6170726Y430530D01*
X6280810Y430530D01*
X6284722Y429768D01*
X6287973Y427583D01*
X6290208Y424281D01*
X6290970Y420370D01*
X6290970Y341630D01*
X6290208Y337718D01*
X6287973Y334416D01*
X6284722Y332232D01*
X6280810Y331470D01*
X6170726Y331470D01*
X6170726Y214071D01*
X6201105Y214071D01*
X6212941Y214934D01*
X6224168Y217373D01*
X6234938Y221386D01*
X6244996Y226872D01*
X6254191Y233781D01*
X6262319Y241909D01*
X6269228Y251104D01*
X6274714Y261162D01*
X6276949Y267208D01*
X6279134Y270713D01*
X6282486Y272999D01*
X6286500Y273862D01*
X6290513Y272999D01*
X6293866Y270713D01*
X6295999Y267208D01*
X6298285Y261162D01*
X6303772Y251104D01*
X6310680Y241909D01*
X6318758Y233781D01*
X6327952Y226872D01*
X6338062Y221386D01*
X6348831Y217373D01*
X6360058Y214934D01*
X6371844Y214071D01*
X6519621Y214071D01*
X6531457Y214934D01*
X6542684Y217373D01*
X6553403Y221386D01*
X6559397Y224637D01*
X6561937Y225602D01*
X6564680Y225856D01*
X6573012Y225501D01*
X6779361Y225501D01*
X6783171Y224739D01*
X6787184Y221894D01*
X6802932Y209550D01*
X6819798Y198678D01*
X6837578Y189534D01*
X6856171Y182067D01*
X6875424Y176428D01*
X6895084Y172618D01*
G37*
G36*
X7497267Y183083D02*
G01*
X7513370Y189534D01*
X7531201Y198678D01*
X7548016Y209550D01*
X7563764Y221894D01*
X7578293Y235712D01*
X7591399Y250850D01*
X7603032Y267208D01*
X7613040Y284530D01*
X7621371Y302768D01*
X7623759Y309626D01*
X7497267Y309626D01*
G37*
G36*
X7354570Y183083D02*
G01*
X7354570Y309626D01*
X7228128Y309626D01*
X7230516Y302768D01*
X7238847Y284530D01*
X7248855Y267208D01*
X7260437Y250850D01*
X7273594Y235712D01*
X7288072Y221894D01*
X7303820Y209550D01*
X7320686Y198678D01*
X7338466Y189534D01*
G37*
G36*
X5854192Y214071D02*
G01*
X5884621Y214071D01*
X5896457Y214934D01*
X5907684Y217373D01*
X5918403Y221386D01*
X5928512Y226872D01*
X5937707Y233781D01*
X5945835Y241909D01*
X5952693Y251104D01*
X5958230Y261162D01*
X5959449Y264566D01*
X5961634Y268020D01*
X5964986Y270357D01*
X5969000Y271170D01*
X5973013Y270357D01*
X5976366Y268020D01*
X5978499Y264566D01*
X5979769Y261162D01*
X5985256Y251104D01*
X5992164Y241909D01*
X6000292Y233781D01*
X6009487Y226872D01*
X6019546Y221386D01*
X6030315Y217373D01*
X6041542Y214934D01*
X6053328Y214071D01*
X6083757Y214071D01*
X6083757Y331470D01*
X5854192Y331470D01*
G37*
G36*
X7228128Y452374D02*
G01*
X7354570Y452374D01*
X7354570Y578916D01*
X7338466Y572465D01*
X7320686Y563321D01*
X7303820Y552450D01*
X7288072Y540105D01*
X7273594Y526288D01*
X7260437Y511149D01*
X7248855Y494792D01*
X7238847Y477469D01*
X7230516Y459232D01*
G37*
G36*
X7497267Y452374D02*
G01*
X7623759Y452374D01*
X7621371Y459232D01*
X7613040Y477469D01*
X7603032Y494792D01*
X7591399Y511149D01*
X7578293Y526288D01*
X7563764Y540105D01*
X7548016Y552450D01*
X7531201Y563321D01*
X7513370Y572465D01*
X7497267Y578916D01*
G37*
G36*
X1785162Y590753D02*
G01*
X1785162Y705662D01*
X1670253Y705662D01*
X1672589Y698347D01*
X1680057Y681278D01*
X1689201Y665124D01*
X1699971Y649986D01*
X1712214Y636016D01*
X1725879Y623417D01*
X1740712Y612241D01*
X1756664Y602691D01*
X1773478Y594817D01*
G37*
G36*
X8001000Y682040D02*
G01*
X8021015Y683006D01*
X8040827Y685850D01*
X8060283Y690575D01*
X8079231Y697128D01*
X8097469Y705459D01*
X8114792Y715467D01*
X8131098Y727100D01*
X8146237Y740206D01*
X8160054Y754684D01*
X8172450Y770432D01*
X8183270Y787298D01*
X8192465Y805129D01*
X8199932Y823721D01*
X8205571Y842924D01*
X8209330Y862584D01*
X8211261Y882548D01*
X8211261Y902563D01*
X8209330Y922528D01*
X8205571Y942187D01*
X8199932Y961390D01*
X8192465Y979982D01*
X8183270Y997813D01*
X8172450Y1014679D01*
X8160054Y1030427D01*
X8146237Y1044905D01*
X8131098Y1058011D01*
X8114792Y1069644D01*
X8097469Y1079652D01*
X8079231Y1087983D01*
X8060283Y1094536D01*
X8055305Y1095756D01*
X8051901Y1097280D01*
X8049259Y1099972D01*
X8003895Y1167638D01*
X8002320Y1171600D01*
X8002524Y1175867D01*
X8004454Y1179677D01*
X8007756Y1182370D01*
X8011871Y1183436D01*
X8021015Y1183894D01*
X8040827Y1186738D01*
X8060283Y1191463D01*
X8079231Y1198016D01*
X8097469Y1206347D01*
X8114792Y1216355D01*
X8131098Y1227988D01*
X8146237Y1241094D01*
X8160054Y1255572D01*
X8172450Y1271320D01*
X8183270Y1288186D01*
X8192465Y1306017D01*
X8199932Y1324610D01*
X8205571Y1343812D01*
X8209330Y1363472D01*
X8211261Y1383436D01*
X8211261Y1403451D01*
X8209330Y1423416D01*
X8205571Y1443075D01*
X8199932Y1462278D01*
X8192465Y1480870D01*
X8183270Y1498701D01*
X8172450Y1515567D01*
X8160054Y1531315D01*
X8146237Y1545793D01*
X8131098Y1558899D01*
X8114792Y1570532D01*
X8097469Y1580540D01*
X8079231Y1588871D01*
X8060283Y1595424D01*
X8044535Y1599234D01*
X8041335Y1600657D01*
X8038795Y1603044D01*
X7979664Y1682445D01*
X7978038Y1685848D01*
X7977733Y1689658D01*
X7978851Y1693265D01*
X7981238Y1696212D01*
X7984540Y1698091D01*
X7988300Y1698650D01*
X8001000Y1698040D01*
X8021015Y1699006D01*
X8040827Y1701850D01*
X8060283Y1706575D01*
X8079231Y1713128D01*
X8097469Y1721459D01*
X8114792Y1731467D01*
X8131098Y1743100D01*
X8146237Y1756206D01*
X8160054Y1770684D01*
X8172450Y1786432D01*
X8183270Y1803298D01*
X8192465Y1821078D01*
X8199932Y1839722D01*
X8205571Y1858924D01*
X8209330Y1878584D01*
X8211261Y1898548D01*
X8211261Y1918563D01*
X8209330Y1938528D01*
X8205571Y1958187D01*
X8199932Y1977389D01*
X8192465Y1995982D01*
X8183270Y2013813D01*
X8172450Y2030679D01*
X8160054Y2046427D01*
X8146237Y2060905D01*
X8131098Y2074011D01*
X8114792Y2085644D01*
X8097469Y2095652D01*
X8079231Y2103983D01*
X8060283Y2110536D01*
X8040827Y2115261D01*
X8021015Y2118106D01*
X8014817Y2118410D01*
X8011159Y2119274D01*
X8008112Y2121357D01*
X7941309Y2188159D01*
X7938922Y2191867D01*
X7938363Y2196185D01*
X7939633Y2200351D01*
X7942529Y2203602D01*
X7946491Y2205329D01*
X7950860Y2205228D01*
X7961122Y2202738D01*
X7980984Y2199894D01*
X8001000Y2198928D01*
X8021015Y2199894D01*
X8040827Y2202738D01*
X8060283Y2207463D01*
X8079231Y2214016D01*
X8097469Y2222347D01*
X8114792Y2232355D01*
X8131098Y2243988D01*
X8146237Y2257094D01*
X8160054Y2271572D01*
X8172450Y2287320D01*
X8183270Y2304186D01*
X8192465Y2321966D01*
X8199932Y2340610D01*
X8205571Y2359812D01*
X8209330Y2379472D01*
X8211261Y2399436D01*
X8211261Y2419451D01*
X8209330Y2439416D01*
X8205571Y2459075D01*
X8199932Y2478278D01*
X8192465Y2496870D01*
X8183270Y2514701D01*
X8172450Y2531567D01*
X8160054Y2547315D01*
X8146237Y2561793D01*
X8131098Y2574899D01*
X8114792Y2586532D01*
X8097469Y2596540D01*
X8079231Y2604871D01*
X8060283Y2611424D01*
X8040827Y2616149D01*
X8021015Y2618994D01*
X8001000Y2619959D01*
X7980984Y2618994D01*
X7961122Y2616149D01*
X7941665Y2611424D01*
X7922768Y2604871D01*
X7904530Y2596540D01*
X7887157Y2586532D01*
X7870850Y2574899D01*
X7866329Y2570988D01*
X7863230Y2569159D01*
X7859674Y2568498D01*
X7484008Y2568498D01*
X7479893Y2569413D01*
X7476490Y2571851D01*
X7474356Y2575509D01*
X7473899Y2579674D01*
X7475169Y2583688D01*
X7476642Y2586278D01*
X7484109Y2603296D01*
X7486446Y2610662D01*
X7371537Y2610662D01*
X7371537Y2597759D01*
X7370876Y2594152D01*
X7368997Y2591054D01*
X7366152Y2588768D01*
X7362698Y2587650D01*
X7359040Y2587853D01*
X7347559Y2590596D01*
X7329119Y2592933D01*
X7310526Y2593441D01*
X7292035Y2592019D01*
X7273747Y2588666D01*
X7271816Y2588107D01*
X7268108Y2587752D01*
X7264501Y2588768D01*
X7261504Y2591003D01*
X7259523Y2594203D01*
X7258862Y2597861D01*
X7258862Y2610662D01*
X7143800Y2610662D01*
X7149795Y2594711D01*
X7157059Y2580132D01*
X7158126Y2575814D01*
X7157313Y2571496D01*
X7154722Y2567940D01*
X7150811Y2565806D01*
X7146442Y2565552D01*
X7141413Y2567736D01*
X7125004Y2576474D01*
X7107783Y2583484D01*
X7089952Y2588666D01*
X7071664Y2592019D01*
X7053122Y2593441D01*
X7034580Y2592984D01*
X7016140Y2590596D01*
X6998055Y2586329D01*
X6980478Y2580182D01*
X6963664Y2572308D01*
X6947712Y2562758D01*
X6932879Y2551582D01*
X6919214Y2538984D01*
X6906971Y2525014D01*
X6896201Y2509875D01*
X6887057Y2493721D01*
X6879590Y2476652D01*
X6873951Y2458974D01*
X6870141Y2440787D01*
X6868210Y2422296D01*
X6868210Y2403703D01*
X6870141Y2385212D01*
X6873951Y2367026D01*
X6879590Y2349347D01*
X6887057Y2332278D01*
X6896201Y2316124D01*
X6906971Y2300986D01*
X6919214Y2287016D01*
X6924700Y2281936D01*
X6927088Y2278583D01*
X6927951Y2274519D01*
X6927951Y1587703D01*
X6928205Y1580235D01*
X6928866Y1573022D01*
X6929932Y1565808D01*
X6931456Y1558696D01*
X6933438Y1551686D01*
X6935774Y1544777D01*
X6938568Y1538071D01*
X6941769Y1531518D01*
X6945325Y1525168D01*
X6949287Y1519072D01*
X6953605Y1513179D01*
X6958279Y1507591D01*
X6963359Y1502206D01*
X7153605Y1311960D01*
X7157466Y1308404D01*
X7159193Y1306372D01*
X7168083Y1292402D01*
X7179614Y1277823D01*
X7182459Y1273810D01*
X7183221Y1270000D01*
X7182459Y1266190D01*
X7179614Y1262176D01*
X7168083Y1247597D01*
X7158075Y1231900D01*
X7149795Y1215288D01*
X7143800Y1199337D01*
X7258862Y1199337D01*
X7258862Y1212088D01*
X7259523Y1215796D01*
X7261504Y1218996D01*
X7264501Y1221232D01*
X7268108Y1222248D01*
X7271816Y1221841D01*
X7273747Y1221333D01*
X7292035Y1217980D01*
X7310526Y1216558D01*
X7329119Y1217015D01*
X7347559Y1219403D01*
X7359040Y1222146D01*
X7362698Y1222298D01*
X7366152Y1221232D01*
X7368997Y1218946D01*
X7370876Y1215847D01*
X7371537Y1212240D01*
X7371537Y1199337D01*
X7486446Y1199337D01*
X7484109Y1206652D01*
X7476642Y1223721D01*
X7467498Y1239875D01*
X7456728Y1255014D01*
X7449464Y1263294D01*
X7447584Y1266393D01*
X7446924Y1270000D01*
X7447584Y1273556D01*
X7449464Y1276705D01*
X7456728Y1284986D01*
X7467498Y1300124D01*
X7476642Y1316278D01*
X7484109Y1333296D01*
X7488834Y1348130D01*
X7490612Y1351483D01*
X7493508Y1353921D01*
X7497064Y1355140D01*
X7500823Y1354937D01*
X7504277Y1353413D01*
X7506919Y1350721D01*
X7790738Y926998D01*
X7792161Y923848D01*
X7792415Y920394D01*
X7790738Y902563D01*
X7790738Y882548D01*
X7792618Y862584D01*
X7796428Y842924D01*
X7802067Y823721D01*
X7809484Y805129D01*
X7818678Y787298D01*
X7829499Y770432D01*
X7841894Y754684D01*
X7855712Y740206D01*
X7870850Y727100D01*
X7887157Y715467D01*
X7904530Y705459D01*
X7922768Y697128D01*
X7941665Y690575D01*
X7961122Y685850D01*
X7980984Y683006D01*
G37*
G36*
X7258862Y971651D02*
G01*
X7258862Y1086662D01*
X7143800Y1086662D01*
X7149795Y1070711D01*
X7158075Y1054100D01*
X7168083Y1038402D01*
X7179614Y1023823D01*
X7192568Y1010513D01*
X7206843Y998626D01*
X7222286Y988263D01*
X7238644Y979525D01*
X7255865Y972515D01*
G37*
G36*
X7371537Y971753D02*
G01*
X7383170Y975766D01*
X7400036Y983691D01*
X7415936Y993241D01*
X7430820Y1004366D01*
X7444435Y1017016D01*
X7456728Y1030986D01*
X7467498Y1046124D01*
X7476642Y1062278D01*
X7484109Y1079296D01*
X7486446Y1086662D01*
X7371537Y1086662D01*
G37*
G36*
X472033Y1034745D02*
G01*
X493166Y1034745D01*
X514197Y1036624D01*
X535025Y1040384D01*
X555396Y1046022D01*
X575157Y1053439D01*
X594207Y1062634D01*
X612343Y1073454D01*
X629462Y1085850D01*
X645363Y1099769D01*
X659942Y1115060D01*
X673150Y1131570D01*
X684784Y1149197D01*
X694791Y1167841D01*
X703072Y1187246D01*
X709625Y1207363D01*
X714298Y1227937D01*
X717143Y1248867D01*
X718108Y1270000D01*
X717143Y1291132D01*
X714298Y1312062D01*
X709625Y1332636D01*
X703072Y1352753D01*
X694791Y1372158D01*
X684784Y1390802D01*
X673150Y1408430D01*
X659942Y1424940D01*
X645363Y1440230D01*
X629462Y1454150D01*
X612343Y1466545D01*
X594207Y1477365D01*
X575157Y1486560D01*
X555396Y1493977D01*
X535025Y1499616D01*
X514197Y1503375D01*
X493166Y1505254D01*
X472033Y1505254D01*
X451002Y1503375D01*
X430174Y1499616D01*
X409803Y1493977D01*
X390042Y1486560D01*
X370992Y1477365D01*
X352856Y1466545D01*
X335788Y1454150D01*
X319836Y1440230D01*
X305257Y1424940D01*
X292049Y1408430D01*
X280416Y1390802D01*
X270408Y1372158D01*
X262128Y1352753D01*
X255574Y1332636D01*
X250901Y1312062D01*
X248056Y1291132D01*
X247091Y1270000D01*
X248056Y1248867D01*
X250901Y1227937D01*
X255574Y1207363D01*
X262128Y1187246D01*
X270408Y1167841D01*
X280416Y1149197D01*
X292049Y1131570D01*
X305257Y1115060D01*
X319836Y1099769D01*
X335788Y1085850D01*
X352856Y1073454D01*
X370992Y1062634D01*
X390042Y1053439D01*
X409803Y1046022D01*
X430174Y1040384D01*
X451002Y1036624D01*
G37*
G36*
X1897837Y2368651D02*
G01*
X1900783Y2369515D01*
X1918004Y2376525D01*
X1934413Y2385263D01*
X1949856Y2395626D01*
X1964131Y2407513D01*
X1977085Y2420823D01*
X1988616Y2435402D01*
X1998573Y2451100D01*
X2006904Y2467711D01*
X2012899Y2483662D01*
X1897837Y2483662D01*
G37*
G36*
X4427575Y2628442D02*
G01*
X4451096Y2628442D01*
X4451096Y2745130D01*
X4346702Y2745130D01*
X4346702Y2709316D01*
X4347565Y2697480D01*
X4350004Y2686253D01*
X4354017Y2675483D01*
X4359503Y2665425D01*
X4366412Y2656230D01*
X4374540Y2648102D01*
X4383735Y2641244D01*
X4393793Y2635707D01*
X4404563Y2631694D01*
X4415790Y2629255D01*
G37*
G36*
X472033Y2812745D02*
G01*
X493166Y2812745D01*
X514197Y2814624D01*
X535025Y2818384D01*
X555396Y2824022D01*
X575157Y2831439D01*
X594207Y2840634D01*
X612343Y2851454D01*
X629462Y2863850D01*
X645363Y2877769D01*
X659942Y2893060D01*
X673150Y2909570D01*
X684784Y2927197D01*
X694791Y2945841D01*
X703072Y2965246D01*
X709625Y2985363D01*
X714298Y3005937D01*
X717143Y3026867D01*
X718108Y3048000D01*
X717143Y3069132D01*
X714298Y3090062D01*
X709625Y3110636D01*
X703072Y3130753D01*
X694791Y3150158D01*
X684784Y3168802D01*
X673150Y3186430D01*
X659942Y3202940D01*
X645363Y3218230D01*
X629462Y3232150D01*
X612343Y3244545D01*
X594207Y3255365D01*
X575157Y3264560D01*
X555396Y3271977D01*
X535025Y3277615D01*
X514197Y3281375D01*
X493166Y3283254D01*
X472033Y3283254D01*
X451002Y3281375D01*
X430174Y3277615D01*
X409803Y3271977D01*
X390042Y3264560D01*
X370992Y3255365D01*
X352856Y3244545D01*
X335788Y3232150D01*
X319836Y3218230D01*
X305257Y3202940D01*
X292049Y3186430D01*
X280416Y3168802D01*
X270408Y3150158D01*
X262128Y3130753D01*
X255574Y3110636D01*
X250901Y3090062D01*
X248056Y3069132D01*
X247091Y3048000D01*
X248056Y3026867D01*
X250901Y3005937D01*
X255574Y2985363D01*
X262128Y2965246D01*
X270408Y2945841D01*
X280416Y2927197D01*
X292049Y2909570D01*
X305257Y2893060D01*
X319836Y2877769D01*
X335788Y2863850D01*
X352856Y2851454D01*
X370992Y2840634D01*
X390042Y2831439D01*
X409803Y2824022D01*
X430174Y2818384D01*
X451002Y2814624D01*
G37*
G36*
X4346702Y2842869D02*
G01*
X4451096Y2842869D01*
X4451096Y2959557D01*
X4427575Y2959557D01*
X4415790Y2958693D01*
X4404563Y2956255D01*
X4393793Y2952242D01*
X4383735Y2946755D01*
X4374540Y2939897D01*
X4366412Y2931769D01*
X4359503Y2922574D01*
X4354017Y2912465D01*
X4350004Y2901746D01*
X4347565Y2890520D01*
X4346702Y2878683D01*
G37*
G36*
X370433Y3701745D02*
G01*
X391566Y3701745D01*
X412597Y3703624D01*
X433425Y3707384D01*
X453796Y3713022D01*
X473557Y3720439D01*
X492607Y3729634D01*
X510743Y3740454D01*
X527862Y3752850D01*
X543763Y3766769D01*
X558342Y3782060D01*
X571550Y3798570D01*
X583184Y3816197D01*
X593191Y3834841D01*
X601472Y3854246D01*
X608025Y3874363D01*
X612698Y3894937D01*
X615543Y3915867D01*
X616508Y3937000D01*
X615543Y3958132D01*
X612698Y3979062D01*
X608025Y3999636D01*
X601472Y4019753D01*
X593191Y4039158D01*
X583184Y4057802D01*
X571550Y4075429D01*
X558342Y4091940D01*
X543763Y4107230D01*
X527862Y4121150D01*
X510743Y4133545D01*
X492607Y4144365D01*
X473557Y4153560D01*
X453796Y4160977D01*
X433425Y4166615D01*
X412597Y4170375D01*
X391566Y4172254D01*
X370433Y4172254D01*
X349402Y4170375D01*
X328574Y4166615D01*
X308203Y4160977D01*
X288442Y4153560D01*
X269392Y4144365D01*
X251256Y4133545D01*
X234188Y4121150D01*
X218236Y4107230D01*
X203657Y4091940D01*
X190449Y4075429D01*
X178816Y4057802D01*
X168808Y4039158D01*
X160528Y4019753D01*
X153974Y3999636D01*
X149301Y3979062D01*
X146456Y3958132D01*
X145491Y3937000D01*
X146456Y3915867D01*
X149301Y3894937D01*
X153974Y3874363D01*
X160528Y3854246D01*
X168808Y3834841D01*
X178816Y3816197D01*
X190449Y3798570D01*
X203657Y3782060D01*
X218236Y3766769D01*
X234188Y3752850D01*
X251256Y3740454D01*
X269392Y3729634D01*
X288442Y3720439D01*
X308203Y3713022D01*
X328574Y3707384D01*
X349402Y3703624D01*
G37*
G36*
X8117433Y3701745D02*
G01*
X8138515Y3701745D01*
X8159597Y3703624D01*
X8180374Y3707384D01*
X8200745Y3713022D01*
X8220557Y3720439D01*
X8239556Y3729634D01*
X8257692Y3740454D01*
X8274812Y3752850D01*
X8290712Y3766769D01*
X8305342Y3782060D01*
X8318500Y3798570D01*
X8330133Y3816197D01*
X8340140Y3834841D01*
X8348472Y3854246D01*
X8354974Y3874363D01*
X8359698Y3894937D01*
X8362543Y3915867D01*
X8363508Y3937000D01*
X8362543Y3958132D01*
X8359698Y3979062D01*
X8354974Y3999636D01*
X8348472Y4019753D01*
X8340140Y4039158D01*
X8330133Y4057802D01*
X8318500Y4075429D01*
X8305342Y4091940D01*
X8290712Y4107230D01*
X8274812Y4121150D01*
X8257692Y4133545D01*
X8239556Y4144365D01*
X8220557Y4153560D01*
X8200745Y4160977D01*
X8180374Y4166615D01*
X8159597Y4170375D01*
X8138515Y4172254D01*
X8117433Y4172254D01*
X8096351Y4170375D01*
X8075574Y4166615D01*
X8055203Y4160977D01*
X8035391Y4153560D01*
X8016392Y4144365D01*
X7998256Y4133545D01*
X7981137Y4121150D01*
X7965236Y4107230D01*
X7950606Y4091940D01*
X7937449Y4075429D01*
X7925816Y4057802D01*
X7915808Y4039158D01*
X7907477Y4019753D01*
X7900974Y3999636D01*
X7896250Y3979062D01*
X7893405Y3958132D01*
X7892491Y3937000D01*
X7893405Y3915867D01*
X7896250Y3894937D01*
X7900974Y3874363D01*
X7907477Y3854246D01*
X7915808Y3834841D01*
X7925816Y3816197D01*
X7937449Y3798570D01*
X7950606Y3782060D01*
X7965236Y3766769D01*
X7981137Y3752850D01*
X7998256Y3740454D01*
X8016392Y3729634D01*
X8035391Y3720439D01*
X8055203Y3713022D01*
X8075574Y3707384D01*
X8096351Y3703624D01*
G37*
G36*
X6280708Y4056837D02*
G01*
X6408115Y4056837D01*
X6408115Y4175353D01*
X6397955Y4172712D01*
X6380784Y4166362D01*
X6364376Y4158335D01*
X6348882Y4148632D01*
X6334404Y4137456D01*
X6321145Y4124858D01*
X6309258Y4110990D01*
X6298793Y4095953D01*
X6289954Y4080001D01*
X6282740Y4063187D01*
G37*
G36*
X6545834Y4056837D02*
G01*
X6673240Y4056837D01*
X6671259Y4063187D01*
X6664045Y4080001D01*
X6655155Y4095953D01*
X6644741Y4110990D01*
X6632803Y4124858D01*
X6619544Y4137456D01*
X6605117Y4148632D01*
X6589572Y4158335D01*
X6573164Y4166362D01*
X6556044Y4172712D01*
X6545834Y4175353D01*
G37*

%LPD*%
G36*
X6232956Y1250442D02*
G01*
X6228943Y1251458D01*
X6225641Y1253947D01*
X6217513Y1263345D01*
X6215684Y1266444D01*
X6215024Y1270050D01*
X6215684Y1273606D01*
X6217564Y1276705D01*
X6224828Y1284986D01*
X6235598Y1300124D01*
X6244742Y1316278D01*
X6252210Y1333296D01*
X6257848Y1351026D01*
X6261658Y1369212D01*
X6263538Y1387703D01*
X6263538Y1406296D01*
X6261658Y1424787D01*
X6257848Y1442974D01*
X6252210Y1460652D01*
X6244742Y1477721D01*
X6235598Y1493875D01*
X6224828Y1509014D01*
X6217564Y1517294D01*
X6215684Y1520393D01*
X6215024Y1524000D01*
X6215684Y1527556D01*
X6217564Y1530705D01*
X6224828Y1538986D01*
X6235598Y1554124D01*
X6244742Y1570278D01*
X6252210Y1587296D01*
X6257848Y1605026D01*
X6261658Y1623212D01*
X6263538Y1641703D01*
X6263538Y1660296D01*
X6261658Y1678787D01*
X6257848Y1696974D01*
X6252210Y1714652D01*
X6244742Y1731721D01*
X6235598Y1747875D01*
X6224828Y1763014D01*
X6217564Y1771294D01*
X6215684Y1774393D01*
X6215024Y1778000D01*
X6215684Y1781556D01*
X6217564Y1784705D01*
X6224828Y1792986D01*
X6235598Y1808124D01*
X6244742Y1824278D01*
X6252210Y1841296D01*
X6257848Y1859025D01*
X6261658Y1877212D01*
X6263538Y1895703D01*
X6263538Y1914296D01*
X6261658Y1932787D01*
X6257848Y1950974D01*
X6252210Y1968652D01*
X6244742Y1985721D01*
X6235598Y2001875D01*
X6224828Y2017014D01*
X6217564Y2025294D01*
X6215684Y2028393D01*
X6215024Y2032000D01*
X6215684Y2035556D01*
X6217564Y2038705D01*
X6224828Y2046986D01*
X6235598Y2062124D01*
X6244742Y2078278D01*
X6252210Y2095296D01*
X6257848Y2113026D01*
X6261658Y2131212D01*
X6263538Y2149703D01*
X6263538Y2168296D01*
X6261658Y2186787D01*
X6257848Y2204974D01*
X6252210Y2222652D01*
X6244742Y2239721D01*
X6235598Y2255875D01*
X6224828Y2271014D01*
X6217564Y2279294D01*
X6215684Y2282393D01*
X6215024Y2286000D01*
X6215684Y2289556D01*
X6217564Y2292705D01*
X6224828Y2300986D01*
X6235598Y2316124D01*
X6244742Y2332278D01*
X6252210Y2349296D01*
X6257848Y2367026D01*
X6261658Y2385212D01*
X6263538Y2403703D01*
X6263538Y2422296D01*
X6261658Y2440787D01*
X6257848Y2458974D01*
X6252210Y2476652D01*
X6244742Y2493670D01*
X6235598Y2509875D01*
X6224828Y2525014D01*
X6217564Y2533294D01*
X6215684Y2536393D01*
X6215024Y2540000D01*
X6215684Y2543556D01*
X6217564Y2546705D01*
X6224828Y2554986D01*
X6235598Y2570124D01*
X6244742Y2586278D01*
X6252210Y2603296D01*
X6257848Y2621026D01*
X6261658Y2639212D01*
X6263538Y2657703D01*
X6263538Y2676296D01*
X6261658Y2694787D01*
X6257848Y2712974D01*
X6252210Y2730652D01*
X6244742Y2747670D01*
X6235598Y2763875D01*
X6224828Y2779014D01*
X6217564Y2787294D01*
X6215684Y2790393D01*
X6215024Y2794000D01*
X6215684Y2797556D01*
X6217564Y2800705D01*
X6224828Y2808986D01*
X6235598Y2824124D01*
X6244742Y2840278D01*
X6252210Y2857296D01*
X6257848Y2875026D01*
X6261658Y2893212D01*
X6263538Y2911703D01*
X6263538Y2930296D01*
X6261658Y2948787D01*
X6257848Y2966974D01*
X6252210Y2984652D01*
X6244742Y3001670D01*
X6235598Y3017875D01*
X6224828Y3033014D01*
X6212535Y3046984D01*
X6198920Y3059582D01*
X6184036Y3070758D01*
X6168136Y3080308D01*
X6151270Y3088182D01*
X6133744Y3094278D01*
X6115659Y3098596D01*
X6097219Y3100933D01*
X6078321Y3101390D01*
X6074054Y3102000D01*
X6070396Y3104337D01*
X6041644Y3133090D01*
X6036208Y3138220D01*
X6030620Y3142843D01*
X6024778Y3147161D01*
X6018631Y3151124D01*
X6012281Y3154730D01*
X6005779Y3157880D01*
X5999022Y3160674D01*
X5992164Y3163062D01*
X5985154Y3164992D01*
X5978042Y3166516D01*
X5970828Y3167634D01*
X5963564Y3168294D01*
X5956147Y3168497D01*
X5542737Y3168497D01*
X5538317Y3169513D01*
X5534812Y3172307D01*
X5532831Y3176371D01*
X5532831Y3180892D01*
X5534761Y3185007D01*
X5544616Y3197402D01*
X5554573Y3213100D01*
X5562904Y3229711D01*
X5568899Y3245662D01*
X5453837Y3245662D01*
X5453837Y3232861D01*
X5453176Y3229203D01*
X5451195Y3226003D01*
X5448198Y3223768D01*
X5444591Y3222752D01*
X5440832Y3223107D01*
X5438952Y3223666D01*
X5420664Y3227019D01*
X5402122Y3228441D01*
X5383580Y3227984D01*
X5365140Y3225596D01*
X5353659Y3222853D01*
X5350002Y3222650D01*
X5346547Y3223768D01*
X5343652Y3226054D01*
X5341772Y3229152D01*
X5341162Y3232759D01*
X5341162Y3245662D01*
X5328259Y3245662D01*
X5324602Y3246323D01*
X5321452Y3248253D01*
X5319217Y3251149D01*
X5318150Y3254705D01*
X5318404Y3258413D01*
X5320182Y3265068D01*
X5323027Y3283458D01*
X5323992Y3302000D01*
X5323027Y3320542D01*
X5320182Y3338931D01*
X5318404Y3345586D01*
X5318150Y3349294D01*
X5319217Y3352800D01*
X5321452Y3355746D01*
X5324602Y3357676D01*
X5328259Y3358337D01*
X5341162Y3358337D01*
X5341162Y3425342D01*
X5341924Y3429203D01*
X5344109Y3432505D01*
X5347411Y3434689D01*
X5351322Y3435502D01*
X5443677Y3435502D01*
X5447588Y3434689D01*
X5450890Y3432505D01*
X5453075Y3429203D01*
X5453837Y3425342D01*
X5453837Y3358337D01*
X5568899Y3358337D01*
X5562904Y3374288D01*
X5554573Y3390900D01*
X5544616Y3406597D01*
X5534761Y3418992D01*
X5532831Y3423107D01*
X5532831Y3427628D01*
X5534812Y3431692D01*
X5538317Y3434486D01*
X5542737Y3435502D01*
X6105347Y3435502D01*
X6109258Y3434689D01*
X6112560Y3432505D01*
X6137656Y3407410D01*
X6143091Y3402279D01*
X6148679Y3397656D01*
X6154521Y3393338D01*
X6160668Y3389376D01*
X6167018Y3385769D01*
X6173520Y3382619D01*
X6180277Y3379825D01*
X6187135Y3377437D01*
X6194145Y3375507D01*
X6201257Y3373983D01*
X6208471Y3372865D01*
X6215735Y3372205D01*
X6223152Y3372002D01*
X6266891Y3372002D01*
X6270904Y3371138D01*
X6274257Y3368852D01*
X6276390Y3365347D01*
X6278778Y3359048D01*
X6284264Y3348990D01*
X6291173Y3339795D01*
X6299301Y3331667D01*
X6308445Y3324758D01*
X6318554Y3319272D01*
X6329324Y3315258D01*
X6340551Y3312820D01*
X6352336Y3311956D01*
X6601612Y3311956D01*
X6613448Y3312820D01*
X6624675Y3315258D01*
X6635445Y3319272D01*
X6645503Y3324758D01*
X6654698Y3331667D01*
X6659829Y3336798D01*
X6663486Y3339134D01*
X6667753Y3339744D01*
X6671919Y3338525D01*
X6679793Y3334207D01*
X6690563Y3330194D01*
X6701790Y3327755D01*
X6713575Y3326942D01*
X6833616Y3326942D01*
X6845452Y3327755D01*
X6856679Y3330194D01*
X6867448Y3334207D01*
X6877507Y3339744D01*
X6886702Y3346602D01*
X6894830Y3354730D01*
X6901688Y3363925D01*
X6907225Y3373983D01*
X6913118Y3389934D01*
X6915912Y3392678D01*
X6919518Y3394151D01*
X6923430Y3394151D01*
X6927088Y3392678D01*
X6929881Y3389934D01*
X6935774Y3373983D01*
X6941261Y3363925D01*
X6948170Y3354730D01*
X6956298Y3346602D01*
X6965492Y3339744D01*
X6975551Y3334207D01*
X6986320Y3330194D01*
X6997547Y3327755D01*
X7009333Y3326942D01*
X7129373Y3326942D01*
X7140143Y3327704D01*
X7143496Y3327349D01*
X7146594Y3325977D01*
X7149033Y3323590D01*
X7151370Y3320440D01*
X7157059Y3314192D01*
X7158990Y3310991D01*
X7159701Y3307334D01*
X7159701Y3086658D01*
X7158888Y3082798D01*
X7156703Y3079496D01*
X7153402Y3077311D01*
X7149541Y3076498D01*
X6917436Y3076448D01*
X6904532Y3075584D01*
X6900621Y3075127D01*
X6887921Y3072841D01*
X6884111Y3071926D01*
X6871716Y3068320D01*
X6868007Y3066999D01*
X6856069Y3062071D01*
X6852513Y3060395D01*
X6841185Y3054197D01*
X6837883Y3052114D01*
X6827266Y3044698D01*
X6824167Y3042310D01*
X6814464Y3033826D01*
X6427673Y2647035D01*
X6419189Y2637332D01*
X6416802Y2634234D01*
X6409385Y2623616D01*
X6407302Y2620314D01*
X6401104Y2608986D01*
X6399428Y2605430D01*
X6394500Y2593492D01*
X6393180Y2589784D01*
X6389573Y2577388D01*
X6388658Y2573578D01*
X6386372Y2560878D01*
X6385915Y2556967D01*
X6385052Y2544064D01*
X6385001Y1402130D01*
X6384188Y1398219D01*
X6382004Y1394968D01*
X6240475Y1253439D01*
X6237020Y1251153D01*
G37*

%LPD*%
D10*
X1841500Y1270000D02*
G01*
X1397000Y1270000D01*
X1841500Y3555987D02*
G01*
X1841487Y3556000D01*
X1206500Y3556000D01*
X1587500Y1016000D02*
G01*
X1841500Y1016000D01*
X1841500Y2794000D02*
G01*
X1714500Y2794000D01*
X1587500Y2667000D01*
X1587500Y2476500D01*
X1397000Y2730500D02*
G01*
X1714500Y3048000D01*
X1841500Y3048000D01*
X1206500Y1968500D02*
G01*
X1206500Y1968494D01*
X1396994Y1778000D01*
X1841500Y1778000D01*
X6773603Y3492494D02*
G01*
X6476989Y3492494D01*
D11*
X7302502Y3794503D02*
G01*
X7444993Y3794503D01*
X7683502Y3556000D01*
X7683502Y3334257D01*
X6476989Y3746494D02*
G01*
X7254455Y3746494D01*
X7302477Y3794508D01*
X7302477Y3444496D02*
G01*
X7315202Y3431771D01*
X7315202Y2921000D01*
X7683489Y3015747D02*
G01*
X7588747Y2921000D01*
X7315202Y2921000D01*
X8000989Y3425421D02*
G01*
X7909808Y3334240D01*
X7683489Y3334240D01*
X8000989Y2924535D02*
G01*
X7909783Y3015747D01*
X7683489Y3015747D01*
X7315202Y2413000D02*
G01*
X7997418Y2413000D01*
X8000977Y2409446D01*
D10*
X7315202Y1397000D02*
G01*
X7239002Y1397000D01*
X7048477Y1587525D01*
X7048477Y2413000D01*
D11*
X6350002Y761492D02*
G01*
X6445760Y665734D01*
X6445760Y507994D01*
X6925061Y381000D02*
G01*
X6572760Y381000D01*
X6445760Y508000D01*
X7315202Y1651000D02*
G01*
X7492989Y1651000D01*
X8001002Y892553D01*
X7315202Y1905000D02*
G01*
X7619989Y1904994D01*
X8001002Y1393446D01*
X7315202Y2159000D02*
G01*
X7750525Y2159000D01*
X8000977Y1908553D01*
D10*
X5841964Y762490D02*
G01*
X5778985Y762490D01*
X5492231Y475742D01*
X5492231Y381005D01*
X5397474Y3048000D02*
G01*
X5956294Y3048000D01*
X6083287Y2921005D01*
X5397474Y2794000D02*
G01*
X5778482Y2794000D01*
X5905487Y2666994D01*
X6083274Y2666994D01*
X5397474Y2540000D02*
G01*
X5778482Y2540000D01*
X5905487Y2412994D01*
X6083274Y2412994D01*
X6083287Y1651005D02*
G01*
X5968987Y1651005D01*
X5841987Y1778005D01*
X5841987Y2158994D01*
X5714982Y2286000D01*
X5397474Y2286000D01*
X6083287Y1397005D02*
G01*
X5968974Y1397005D01*
X5651487Y1714494D01*
X5651487Y1904987D01*
X5524474Y2032000D01*
X5397474Y2032000D01*
X6083287Y1143005D02*
G01*
X5905487Y1143005D01*
X5524494Y1524000D01*
X5397474Y1524000D01*
X2857474Y2286000D02*
G01*
X3048000Y2286000D01*
X3365500Y2603500D01*
X3365500Y3556000D01*
X3111500Y3810000D01*
X2857474Y1778000D02*
G01*
X3048000Y1778000D01*
X3556000Y2286000D01*
X3556000Y3619500D01*
X3175000Y4000500D01*
X1841500Y1524000D02*
G01*
X2158987Y1524000D01*
X2286000Y1396994D01*
X2286000Y825500D01*
X2412987Y698500D01*
X2984487Y698500D01*
X3174987Y889000D01*
X3174987Y1143000D01*
X3047987Y1270000D01*
X2857474Y1270000D01*
X1841500Y1016000D02*
G01*
X2031987Y1016000D01*
X2095500Y952494D01*
X2095500Y762005D01*
X2349500Y508000D01*
X3111500Y508000D01*
X3365500Y762000D01*
X3365500Y1270000D01*
X3111500Y1524000D01*
X2857474Y1524000D01*
X3111502Y3810000D02*
G01*
X2095500Y3810000D01*
X1841505Y3556000D01*
X2857474Y2540000D02*
G01*
X3047994Y2540000D01*
X3174987Y2666994D01*
X3174987Y3492494D01*
X3047987Y3619494D01*
X2476500Y3619494D01*
X1905005Y3048000D01*
X1841500Y3048000D01*
X3175000Y4000500D02*
G01*
X1270000Y4000500D01*
X952500Y3683000D01*
X952500Y3429000D01*
X1079500Y3302000D01*
X1841500Y3302000D01*
X4793978Y3050034D02*
G01*
X4783361Y3039417D01*
X4783361Y2794005D01*
X4783361Y2794005D02*
G01*
X5143484Y2793989D01*
X5715000Y3746500D02*
G01*
X4635494Y3746500D01*
X3936987Y3047994D01*
X3936987Y2349494D01*
X3111500Y1524000D01*
D11*
X6540487Y1333497D02*
G01*
X6350002Y1142994D01*
X6350002Y761492D01*
X7315200Y2921000D02*
G01*
X6921500Y2921000D01*
X6540500Y2540000D01*
X6540500Y1333500D01*
D10*
X5143500Y1524000D02*
G01*
X5016500Y1524000D01*
X4889500Y1397000D01*
X4889500Y635000D01*
X5143500Y381000D01*
X5492241Y381000D01*
X6477000Y3492500D02*
G01*
X6223000Y3492500D01*
X6159500Y3556000D01*
X4826000Y3556000D01*
X4699000Y3429000D01*
X4699000Y3299968D01*
X7302477Y3444494D02*
G01*
X7254471Y3492500D01*
X7069355Y3492500D01*
D12*
G01*
X7069363Y3492492D03*
G01*
X6773611Y3492492D03*
D13*
G01*
X6445740Y381000D03*
G01*
X6127239Y381000D03*
D14*
G01*
X5492239Y381000D03*
G01*
X5810740Y381000D03*
D15*
G01*
X7683500Y3015742D03*
D16*
G01*
X7683487Y3334242D03*
D17*
G01*
X4698989Y3299960D03*
G01*
X4603993Y3050024D03*
G01*
X4793985Y3050024D03*
D12*
G01*
X4783366Y2793994D03*
G01*
X4487613Y2793994D03*
D18*
G01*
X2603474Y1016000D03*
G01*
X2857474Y1016000D03*
G01*
X2603474Y1270000D03*
G01*
X2857474Y1270000D03*
G01*
X2603474Y1524000D03*
G01*
X2857474Y1524000D03*
G01*
X2603474Y1778000D03*
G01*
X2857474Y1778000D03*
G01*
X2603474Y2032000D03*
G01*
X2857474Y2032000D03*
G01*
X2603474Y2286000D03*
G01*
X2857474Y2286000D03*
G01*
X2603474Y2540000D03*
G01*
X2857474Y2540000D03*
G01*
X2603474Y2794000D03*
G01*
X2857474Y2794000D03*
G01*
X2603474Y3048000D03*
G01*
X2857474Y3048000D03*
G01*
X2603474Y3302000D03*
G01*
X2857474Y3302000D03*
G01*
X5397474Y1016000D03*
G01*
X5143474Y1016000D03*
G01*
X5143474Y1270000D03*
G01*
X5143474Y1524000D03*
G01*
X5143474Y1778000D03*
G01*
X5143474Y2032000D03*
G01*
X5143474Y2286000D03*
G01*
X5143474Y2540000D03*
G01*
X5143474Y2794000D03*
G01*
X5143474Y3048000D03*
G01*
X5143474Y3302000D03*
G01*
X5397474Y3302000D03*
G01*
X5397474Y3048000D03*
G01*
X5397474Y2794000D03*
G01*
X5397474Y2540000D03*
G01*
X5397474Y2286000D03*
G01*
X5397474Y2032000D03*
G01*
X5397474Y1778000D03*
G01*
X5397474Y1524000D03*
G01*
X5397474Y1270000D03*
D19*
G01*
X6477000Y3746500D03*
G01*
X6477000Y4000500D03*
D20*
G01*
X6476987Y3492489D03*
D21*
G01*
X7302474Y3794505D03*
G01*
X7302474Y3444494D03*
D22*
G01*
X8001000Y3425418D03*
G01*
X8001000Y2924530D03*
G01*
X6925056Y381000D03*
G01*
X7425943Y381000D03*
G01*
X8000974Y1393444D03*
G01*
X8000974Y892555D03*
G01*
X8000974Y2409444D03*
G01*
X8000974Y1908555D03*
D18*
G01*
X1841500Y3556000D03*
G01*
X1841500Y3302000D03*
G01*
X1841500Y3048000D03*
G01*
X1841500Y2794000D03*
G01*
X1841500Y2540000D03*
G01*
X1841500Y1778000D03*
G01*
X1841500Y1524000D03*
G01*
X1841500Y1270000D03*
G01*
X1841500Y1016000D03*
G01*
X1841500Y762000D03*
D23*
G01*
X7315200Y2921000D03*
D18*
G01*
X7315200Y2667000D03*
G01*
X7315200Y2413000D03*
G01*
X7315200Y2159000D03*
G01*
X7315200Y1905000D03*
G01*
X7315200Y1651000D03*
G01*
X7315200Y1397000D03*
G01*
X7315200Y1143000D03*
G01*
X6083300Y1143000D03*
G01*
X6083300Y1397000D03*
G01*
X6083300Y1651000D03*
G01*
X6083300Y1905000D03*
G01*
X6083300Y2159000D03*
G01*
X6083300Y2413000D03*
G01*
X6083300Y2667000D03*
G01*
X6083300Y2921000D03*
D24*
G01*
X6096000Y761492D03*
G01*
X5841974Y762482D03*
D25*
G01*
X6350000Y761517D03*
D18*
G01*
X1397000Y1270000D03*
G01*
X1397000Y2730500D03*
G01*
X1587500Y1016000D03*
G01*
X1206500Y3556000D03*
G01*
X1206500Y1968500D03*
G01*
X5715000Y3746500D03*
G01*
X7048500Y2413000D03*
G01*
X1587500Y2476500D03*
M02*
